<svg width="130" height="27" viewBox="0 0 130 27" fill="none" xmlns="http://www.w3.org/2000/svg">
<path d="M61.8966 3.00839L61.9295 3.00897L61.9741 3.01012L62.0103 3.00897L62.0133 3.03933L62.0128 3.06044L62.0384 3.05813L62.0571 3.05958L62.0826 3.0616L62.1075 3.06999L62.1257 3.06391L62.1259 3.09428L62.1428 3.10469L62.1578 3.10411L62.2047 3.10007L62.2486 3.10209L62.3059 3.10787L62.32 3.10151L62.3227 3.08127L62.3408 3.07404L62.3666 3.0697L62.4135 3.06941L62.4511 3.06565L62.4625 3.06536L62.4885 3.05842L62.5036 3.03875L62.5211 3.01533L62.5535 3.0026L62.6048 3L62.6699 3.00549L62.7267 3.00231L62.7686 3.00087L63.2729 3.00145L63.2911 3.01793L63.3231 3.03037L63.3683 3.04222L63.4408 3.04338L63.4928 3.05148L63.5024 3.05235L63.5509 3.07259L63.5919 3.08561L63.6164 3.09978L63.6747 3.11135L63.7074 3.12754L63.7645 3.13477L63.7767 3.16109L63.8221 3.17989L63.8589 3.19435L63.9037 3.21517L63.9391 3.23397L63.9805 3.23455L64.0027 3.25104L64.0415 3.27533L64.1061 3.31784L64.1444 3.34271L64.1819 3.37655L64.2522 3.4101L64.279 3.43729L64.295 3.45319L64.3374 3.48472L64.3746 3.5226L64.4127 3.56483L64.4344 3.58912L64.4698 3.60213L64.4855 3.62845L64.5434 3.68861L64.5765 3.7372L64.6194 3.8014L64.6547 3.87312L64.6687 3.9139L64.7079 3.98736L64.6962 4.02583L64.6891 4.3885L64.6619 4.45097L64.6417 4.51893L64.6279 4.58429L64.5893 4.62652L64.5719 4.70952L64.5506 4.75984L64.5221 4.82145L64.4387 4.93453L64.3809 5.02563L64.3288 5.08723L64.2906 5.12454L64.2374 5.20928L64.1843 5.26914L64.1447 5.32178L64.0734 5.43428L64.0267 5.52452L63.9788 5.62545L63.9354 5.70238L63.8802 5.8036L63.8437 5.88024L63.801 5.93953L63.7692 6.04423L63.7317 6.12868L63.6821 6.19693L63.657 6.26721L63.6336 6.35339L63.6288 6.44247L63.5931 6.52027L63.5614 6.60587L63.5261 6.69553L63.4979 6.77795L63.4675 6.87455L63.458 6.92777L63.4477 7.03217L63.4151 7.07902L63.4018 7.16983L63.3773 7.22652L63.3465 7.32543L63.3305 7.36968L63.3238 7.41798L63.3183 7.48768L63.3052 7.50792L63.3529 7.48189L63.4003 7.42L63.4403 7.38356L63.4942 7.28841L63.5519 7.22392L63.6608 7.11662L63.717 7.10563L63.7863 7.09666L63.8776 7.06803L63.9215 7.06832L63.9859 7.07324L64.0683 7.07439L64.1366 7.07902L64.2108 7.07873L64.2688 7.08683H64.3337L64.3543 7.09117L64.377 7.09753L64.3848 7.12125L64.3941 7.2135L64.3858 7.22739H64.3604H64.3245L64.0349 7.23057L64.0005 7.24098L63.9614 7.2592L63.9395 7.28696L63.8886 7.32051L63.8493 7.34856L63.7894 7.40294L63.7509 7.44805L63.7118 7.51052L63.6841 7.5406L63.6578 7.63228L63.629 7.69938L63.6286 7.798L63.5905 7.84051L63.5725 7.87984L63.5499 7.97384L63.5451 8.03833L63.5305 8.11121L63.5275 8.13377L63.6462 8.14273L63.7121 8.11815L63.7477 8.11728L63.7788 8.0927L63.8836 8.01173L63.9307 7.98367L63.9869 7.96719L64.0442 7.9293L64.0866 7.88013L64.1701 7.84167L64.2626 7.77139L64.3667 7.66004L64.4173 7.59526L64.4685 7.54349L64.5332 7.47293L64.5708 7.42694L64.6023 7.37286L64.6236 7.32977L64.6245 7.29535V7.26209L64.6169 7.23635L64.5923 7.21582L64.5715 7.17215L64.5541 7.13108L64.5565 7.04518L64.5512 6.15644L64.5541 6.02254L64.6029 6.02167L64.6012 5.96874L64.6093 5.94271V5.88516L64.6224 5.87359L64.6534 5.82645L64.6757 5.77035L64.6855 5.6885L64.7176 5.63066L64.7489 5.56848L64.7915 5.44932L64.8136 5.41404L64.8652 5.34492L64.9021 5.28968L64.947 5.24283L64.9965 5.18932L65.0494 5.14623L65.081 5.11384L65.0982 5.10516L65.1298 5.08868L65.13 5.05079L65.1258 5.0077L65.0943 4.97531L65.1006 4.68176L65.122 4.64329L65.1508 4.5762L65.1816 4.50158L65.2004 4.45993L65.2408 4.38214L65.2904 4.31417L65.3345 4.26269L65.3599 4.22596L65.4151 4.1632L65.4504 4.1499L65.4901 4.13717L65.531 4.11838L65.6014 4.10421L65.6427 4.09032L65.6814 4.08512L65.7731 4.0588L65.8383 4.05041L65.9079 4.04694L65.9712 4.04434L66.0441 4.04694L66.0894 4.06516L66.1258 4.08541L66.1801 4.08888L66.1982 4.09987L66.2868 4.12966L66.3231 4.15395L66.4109 4.18807L66.4212 4.2624L66.4766 4.28294L66.5078 4.33066L66.5371 4.36218L66.5776 4.40007L66.615 4.4608L66.6559 4.51691L66.6905 4.58082L66.7186 4.62883L66.7382 4.66267V4.84458L66.7427 4.96923L66.7384 5.11008L66.7413 5.27608L66.7258 5.29517H66.6841L66.673 5.27869L66.6656 5.22923L66.647 5.20234L66.6231 5.16647L66.6131 5.14276L66.604 5.09764L66.6044 5.05166L66.5923 5.03401L66.5704 4.9915L66.5648 4.95246L66.5616 4.90908L66.5431 4.85615L66.5161 4.81942L66.4995 4.75464L66.467 4.71502L66.4211 4.66585L66.3619 4.6002L66.2982 4.54525L66.2371 4.50245L66.148 4.47266L66.1192 4.43448L66.0612 4.41626L65.993 4.41077L65.8988 4.40441L65.6971 4.40498L65.6785 4.42552L65.6584 4.44952L65.6388 4.46832L65.601 4.51806L65.5841 4.57822L65.568 4.65081L65.5648 4.75782L65.5756 4.82434L65.5766 4.88854L65.5974 4.94899L65.6334 4.97675L65.6819 5.02013L65.733 5.01637L65.7948 5.00885L65.9171 5.00336H65.9814L66.0629 5.03372L66.1389 5.07855L66.2501 5.14681L66.3037 5.19453L66.3574 5.24051L66.4273 5.30096L66.4766 5.36082L66.527 5.42011L66.6054 5.48316L66.6594 5.55026L66.7041 5.58785L66.7888 5.61677L66.7927 5.64107L66.7738 5.65292L66.7005 5.65958L66.6043 5.66334L66.4864 5.66999L66.4117 5.66189L66.3831 5.60694L66.3093 5.53146L66.2493 5.48027L66.1456 5.41577L66.0882 5.37181L65.9923 5.34434L65.9312 5.31542L65.8771 5.30992L65.6655 5.30674L65.6479 5.3426L65.5825 5.35128L65.5563 5.36776L65.5153 5.40334L65.4403 5.4473L65.4141 5.47304L65.3328 5.5358L65.3075 5.57021L65.2616 5.62979L65.2275 5.68994L65.1947 5.78799L65.1582 6.34616L65.1845 6.37364L65.2357 6.42974L65.229 6.49539L65.2405 6.53704L65.2752 6.58303L65.2846 6.64376V6.68801L65.2967 6.7071L65.3222 6.73746L65.3368 6.81497L65.365 6.85893L65.4075 6.88728L65.4168 6.91475L65.4624 6.91793L65.4862 6.8679L65.5229 6.83117L65.5949 6.75915L65.6574 6.68541L65.9444 6.28109L65.965 6.20416L65.9883 6.16569L66.0061 6.0931L66.068 6.0127L66.1204 5.98291L66.2422 5.92796L66.3193 5.88603L66.4076 5.85306L66.5455 5.801L66.6467 5.79406L66.9283 5.7822L67.215 5.78105L67.2557 5.78047L67.3597 5.78799L67.4781 5.81431L67.559 5.8331L67.6287 5.89326L67.6781 5.91321L67.7629 5.97395L67.8066 5.97568L67.8071 5.93664L67.768 5.89181L67.6306 5.81141L67.5596 5.75328L67.446 5.6671L67.365 5.61012L67.2984 5.56645L67.2435 5.482L67.186 5.43313L67.1401 5.38888L67.0747 5.31744L67.0493 5.24427L67.0409 4.88912L67.0868 4.83041L67.1337 4.81248L67.1438 4.8362L67.1465 4.90416L67.1556 4.96779L67.2082 5.01117L67.2319 5.11615L67.2767 5.16966L67.3105 5.2168L67.3582 5.26452L67.388 5.30443L67.4369 5.35735L67.5564 5.46205L67.5973 5.49675L67.6309 5.57715L67.6991 5.60491L67.7862 5.68445L67.8303 5.73853L67.9074 5.79898L67.9651 5.8519L68.1217 6.01444L68.1919 6.07112L68.3179 6.19462L68.3583 6.26779L68.4157 6.3453L68.4347 6.42656L68.433 6.48527L68.4235 6.50841L68.3979 6.53126L68.3655 6.55006L68.3121 6.55439L68.2074 6.56162L68.1203 6.51911L68.0286 6.49973L67.9304 6.44131L67.8244 6.41615L67.7754 6.38434L67.6997 6.38058L67.6038 6.35802L67.4928 6.32997L67.4128 6.31493L66.8167 6.32968L66.7823 6.34096L66.7281 6.37479H66.6442L66.5835 6.38202L66.544 6.41066L66.4167 6.4873L66.366 6.52779L66.3272 6.57637L66.2997 6.60472L66.2601 6.6374L66.2261 6.70652L66.1852 6.78171V6.84042L66.1932 6.86154L66.2366 6.86877L66.3304 6.87108L66.3537 6.82654L66.397 6.8063L66.5251 6.78142H66.5922L67.173 6.80543L67.2839 6.83869L67.3573 6.86703L67.4519 6.88785L67.5053 6.89884L67.5823 6.92372L67.6601 6.94049L67.7556 6.95611L67.7808 6.98676L67.8658 7.00556L67.9001 7.04055L67.9737 7.07324L68.0287 7.10418L68.0685 7.13426L68.1608 7.17186L68.2159 7.21958L68.2863 7.25052L68.324 7.31241L68.4065 7.35203L68.4345 7.39831L68.5013 7.43967L68.5306 7.50937L68.5446 7.58687H68.514L68.4364 7.55072L68.3719 7.53597L68.2542 7.49375L68.1636 7.46743L68.0692 7.42405L67.9978 7.41306L67.8994 7.34307L67.8046 7.33902L67.6692 7.2806L67.5247 7.22478L67.3824 7.15769L67.3015 7.14352L67.1967 7.13715L66.3839 7.12992L66.3573 7.14988L66.293 7.15711L66.2547 7.16492L66.2036 7.19529L66.15 7.21726L66.1328 7.24127L66.0381 7.24387L66.0097 7.27539L65.9777 7.28899L65.8862 7.32485L65.8255 7.35811L65.7652 7.38848L65.7455 7.41017L65.6911 7.44805L65.6137 7.5085L65.5546 7.55766L65.4817 7.60683L65.4442 7.6424L65.3719 7.69388L65.3113 7.74421L65.2519 7.83386L65.1661 7.91079L65.1211 7.96834L65.0585 8.02474L64.9914 8.11179L64.9637 8.20578L65.0204 8.18901L65.1043 8.15199L65.1867 8.11989L65.2573 8.07738L65.3563 8.04498L65.4569 7.98338L65.5171 7.96372L65.5873 7.96343L65.6899 7.92756L65.7587 7.90674L65.8759 7.88274L65.9497 7.86885L66.0068 7.84861L66.0686 7.84398L66.1854 7.8246L66.3136 7.83241L66.4272 7.79337L66.5017 7.79077L66.7356 7.77457L67.5583 7.77689L67.6959 7.79453L67.7948 7.82634L67.8593 7.84745L67.947 7.86249L68.0349 7.91166L68.1391 7.92409L68.1692 7.95475L68.3055 8.03486L68.365 8.07766L68.453 8.14013L68.5251 8.19161L68.5709 8.25582L68.7333 8.39146L68.7437 8.44814L68.7844 8.49499L68.7981 8.5485L68.8184 8.56643L68.8721 8.67257L68.8976 8.70988L68.9169 8.78073L68.9509 8.86027L68.9698 8.94356L68.9802 9.01615L68.9945 9.04044L69.0238 9.1087L69.0267 9.17435L69.0313 9.24289L69.027 9.33573L68.9958 9.34325L68.9696 9.33457L68.9557 9.28193L68.9342 9.22583L68.8867 9.11419L68.8559 9.00024L68.8176 8.93141L68.7493 8.84552L68.6861 8.78276L68.623 8.72405L68.5821 8.67749L68.54 8.66939L68.4952 8.67633L68.4766 8.70583L68.4858 8.83395L68.4824 8.94182L68.4803 9.06069L68.4936 9.13126L68.5075 9.14485L68.5449 9.20877L68.5536 9.28916L68.5894 9.36696L68.6184 9.47629L68.6492 9.52198L68.684 9.56073L68.7433 9.6261L68.7757 9.64952L68.8193 9.6851L68.8705 9.72298L68.9568 9.77446L69.0057 9.86122L69.0289 9.90489L69.065 9.9665L69.0753 10.0165L69.09 10.1689L69.1009 10.23L69.0926 10.3913L69.0943 10.4833L69.0895 10.5351L69.0661 10.5585L69.0233 10.5574V10.503L68.9884 10.4385L68.9811 10.3913L68.9482 10.3323L68.9034 10.2693L68.8249 10.1773L68.7647 10.147L68.7019 10.1143L68.6318 10.0712L68.5901 10.064L68.55 10.0466L68.5046 10.0229L68.4263 10.0243L68.3529 10.0217L68.2949 10.024L68.2853 10.0593L68.2673 10.0848L68.2377 10.1328L68.204 10.1901L68.1762 10.2236L68.1396 10.2583L68.0997 10.317L68.0515 10.3555L68.0269 10.3916L67.9951 10.4532L67.9584 10.501L67.9247 10.5782L67.9113 10.6421L67.8635 10.7017L67.8497 10.7245L67.8561 10.8286L67.8521 10.9556L67.8379 11.023L67.8438 11.0779L67.8823 11.1274L67.9466 11.1641L68.1248 11.1647L68.2256 11.1705L68.3447 11.1711L68.458 11.1745L68.5508 11.1719L68.5757 11.1818L68.6081 11.2179L68.6553 11.2703L68.697 11.3006L68.7276 11.3547L68.7397 11.4658L68.7345 11.523L68.734 11.5985L68.7242 11.6668L68.6907 11.7012L68.6698 11.7463L68.6547 11.7772L68.6255 11.8299L68.5958 11.8718L68.554 11.8921L68.54 11.8336L68.5254 11.7501L68.4993 11.6867L68.4841 11.6219L68.4543 11.5878L68.3989 11.5381L68.3381 11.5086L68.2802 11.4779L68.1891 11.4715L67.9535 11.4808L67.9309 11.4915L67.8934 11.4979L67.8414 11.4866L67.7878 11.4597L67.731 11.3749L67.6959 11.3486L67.6516 11.2792L67.6286 11.2139L67.612 11.1757L67.5814 11.1193L67.5792 11.0724L67.5769 10.977L67.573 10.6033L67.5946 10.5244L67.612 10.4636L67.6539 10.3957L67.7046 10.319L67.7461 10.2094L67.7774 10.1623L67.8983 10.0102L67.9309 9.92022L67.9626 9.89448L68.0195 9.81553L68.0559 9.77215L68.0412 9.20905L68.0144 9.16886L68.0126 9.10349L67.9943 9.05086L67.9778 9.01933L67.9177 8.93083L67.8706 8.85275L67.8311 8.82209L67.7923 8.7897L67.7332 8.73909L67.6465 8.69773L67.5926 8.67604L67.5403 8.64741L67.4642 8.62109L67.3966 8.62832L67.3068 8.62369H67.2292L67.1656 8.64336L67.1296 8.66794L67.0816 8.68067L67.0103 8.70785L66.932 8.73504L66.8648 8.73764L66.8389 8.75846L66.8405 8.80214L66.865 8.8701L66.9159 8.88717L66.9389 8.91464L66.9788 8.95628L67.0217 9.03958L67.0785 9.08383L67.0988 9.12923L67.1375 9.19922L67.1484 9.22988L67.1738 9.30652L67.2342 9.3982L67.2619 9.48005L67.2791 9.59949L67.2737 9.77186L67.2749 9.99108L67.2706 10.057L67.2708 10.188L67.3027 10.2184L67.3518 10.2898L67.3441 10.431L67.3415 10.5079L67.3469 10.5576L67.3779 10.5889L67.3899 10.7477L67.4019 10.791L67.4139 10.9096L67.4479 10.9481L67.4646 11.0247L67.4729 11.2127L67.4709 11.2784L67.4816 11.4831L67.4884 11.6141L67.4951 11.8267L67.4916 11.9939L67.4809 12.1035L67.4717 12.2139L67.457 12.2594L67.4145 12.323L67.3957 12.4167L67.352 12.4395L67.3026 12.528L67.2588 12.5677L67.2008 12.5972L67.0954 12.6099L66.9333 12.6128L66.8313 12.5645L66.7565 12.5225L66.6901 12.482L66.6162 12.4326L66.544 12.3921L66.4992 12.3487L66.4521 12.3108L66.4281 12.2666L66.4299 12.2325L66.4488 12.2385L66.4859 12.2432L66.5503 12.2654L66.5831 12.2993L66.6172 12.3143L66.7056 12.3652L66.8062 12.3785L66.8729 12.3953L66.9511 12.4028L67.0379 12.4011L67.0824 12.3675L67.1334 12.3233L67.1844 12.2484L67.1981 12.1714L67.1963 11.978L67.1817 11.9259V11.8357L67.1671 11.7772L67.1592 11.7145L67.1241 11.6436L67.1028 11.5592L67.0851 11.5193L67.054 11.3741L67.0253 11.2755L67.0042 11.1829L66.9427 11.0215L66.922 10.9576L66.892 10.8934L66.8519 10.804L66.837 10.7442L66.8002 10.6586L66.7545 10.5643L66.7089 10.5646L66.5871 10.5588L66.204 10.5654L66.1381 10.5802L66.0634 10.5967H65.9761L65.8621 10.5949L65.8076 10.6036L65.7192 10.6048L65.6826 10.6198L65.7213 10.6594L65.8315 10.704L65.8651 10.7289L65.9229 10.7601L65.9701 10.7902L66.0267 10.8211L66.1211 10.8616L66.1568 10.903L66.2274 10.9275L66.2738 10.9651L66.3147 10.9926L66.4084 11.0484L66.453 11.0904L66.5108 11.1364L66.5884 11.1901L66.6351 11.2538L66.6566 11.3171V11.3616L66.6464 11.416L66.623 11.4464L66.5769 11.4617L66.5008 11.4681L66.4793 11.4533L66.4719 11.3868L66.4822 11.3709L66.5002 11.324L66.4676 11.285L66.4284 11.2677L66.3867 11.2358L66.3392 11.2008L66.2644 11.1676L66.2017 11.1256L66.0997 11.0554L66.0145 11.0403L65.9461 10.9909L65.8626 10.9651L65.7956 10.9249L65.7298 10.9203L65.6684 10.8859L65.5995 10.8683L65.5024 10.8457L65.446 10.8139L65.3152 10.7624L65.2523 10.6944L65.2089 10.603L65.1694 10.5151L65.1862 10.4865L65.2109 10.4437L65.2795 10.4113L65.3512 10.3714L65.5026 10.3598L65.6406 10.3474L65.8504 10.3506L66.0287 10.3604L66.2013 10.3555L66.324 10.3376L66.3939 10.3133L66.4898 10.26L66.5365 10.2384L66.6053 10.1912L66.6713 10.1623L66.6737 10.0793L66.6799 9.98154L66.6638 9.89246L66.6276 9.85775L66.5596 9.77533L66.5104 9.73282L66.4549 9.69464L66.3971 9.62407L66.2789 9.58011L66.2474 9.51301L66.1408 9.45691L66.0925 9.38374L65.9889 9.3392L65.9295 9.28512L65.8628 9.23797L65.8098 9.22236L65.7369 9.19373L65.6573 9.18621L65.5541 9.18389H65.4307L65.4189 9.20819L65.3647 9.24145L65.2588 9.27644L65.1708 9.30767L65.13 9.35106L65.0645 9.38374L64.9098 9.46327L64.8637 9.52285L64.7841 9.56565L64.7238 9.62262L64.6715 9.65473L64.6011 9.70418L64.4228 9.86758L64.319 9.97402L64.1746 10.1117L64.1107 10.1872L64.025 10.2968L63.9807 10.3318L63.8506 10.4798L63.7194 10.5756L63.6371 10.6271L63.5764 10.6933L63.5363 10.7317L63.4958 10.7743L63.4672 10.8194L63.4171 10.8729L63.4088 10.9744L63.4343 10.999L63.526 11.0623L63.5895 11.1092L63.697 11.1216L63.8008 11.1713L63.9227 11.222L64.0595 11.2399L64.1164 11.2804L64.2284 11.3483L64.3415 11.3937L64.4699 11.471L64.5303 11.5418L64.6076 11.6023L64.725 11.6916L64.8001 11.757L64.9475 11.9375L65.0013 11.9768L65.0393 12.0442L65.0896 12.0847L65.2338 12.209L65.3142 12.2889L65.408 12.3808L65.5779 12.5136L65.8022 12.6669L65.9043 12.7406L66.0673 12.8337L66.2568 12.8878L66.3589 12.924L66.4648 12.9575L66.5288 12.9665L66.7645 12.9775L67.0649 12.9769L67.1631 12.9708L67.2201 12.9341L67.2669 12.9121L67.3607 12.8713L67.4107 12.8554L67.537 12.8282L67.5955 12.7924L67.7309 12.7062L67.8415 12.6431L67.9254 12.5708L68.0075 12.5113L68.1034 12.3927L68.1718 12.3395L68.2271 12.2793L68.2978 12.2001L68.3511 12.1587L68.3598 12.1911L68.3575 12.2565L68.3433 12.2961L68.318 12.3464L68.275 12.4277L68.2419 12.4927L68.1918 12.5752L68.1289 12.6489L68.082 12.7426L68.0134 12.8187L67.8215 13.0023L67.7132 13.1062L67.5876 13.2143L67.4167 13.273L67.3205 13.3372L67.1924 13.3436L67.1161 13.3948L66.9999 13.3951L66.7598 13.4032L66.6686 13.3881L66.5823 13.3772L66.4592 13.3465L66.2475 13.2592L66.1719 13.2302L66.0867 13.1973L66.0064 13.1579L65.9132 13.0874L65.8569 13.0553L65.8014 13.0287L65.7455 12.9806L65.6909 12.9532L65.6599 12.9274L65.6552 12.9587L65.6483 13.0136L65.6526 13.1605L65.6569 13.2424L65.6677 13.3225L65.6706 13.4174V13.5021L65.6669 13.5906L65.6677 13.682L65.6867 13.7442L65.6961 13.8674L65.715 13.9747L65.7341 14.0264L65.7705 14.0941L65.8521 14.1589L65.8396 14.2017L65.815 14.2413L65.7403 14.2404L65.6849 14.1974L65.6126 14.121L65.5382 13.9839L65.4845 13.8836L65.4771 13.7913L65.4264 13.7401L65.4031 13.6438L65.4025 13.5006L65.4059 13.2863L65.3994 13.2085L65.366 13.1464L65.3153 13.0515L65.2879 12.9783L65.2156 12.8991L65.1657 12.8563L65.0848 12.7698L65.0057 12.718L64.9507 12.6955L64.8629 12.6608L64.7572 12.6026L64.7019 12.572L64.4019 12.5468L64.2279 12.5451L64.1086 12.5674L63.9986 12.6029L63.8667 12.6119L63.819 12.6417L63.7343 12.6964V12.7545L63.7231 12.985L63.7308 13.0645L63.7806 13.1137L63.8044 13.21L63.8122 13.2493L63.8407 13.3566L63.8472 13.4873L63.8864 13.5053L63.9175 13.5868L63.9404 13.5252L63.9556 13.3962L63.9729 13.2875L64.023 13.2383L64.1232 13.1542L64.2385 13.1229L64.3316 13.1096L64.4577 13.1759L64.5781 13.2363L64.6621 13.3173L64.731 13.4095L64.8241 13.5825L64.932 13.6938L65.1205 13.92L65.2782 14.0655L65.4442 14.2321L65.5238 14.2789L65.6569 14.3449L65.7565 14.3735L65.8313 14.3856L65.9496 14.401L66.0728 14.3981L66.1449 14.3868L66.2138 14.3501L66.275 14.331L66.3877 14.3032L66.5121 14.2289L66.6221 14.1233L66.7477 13.99L66.8051 13.8966L66.9629 13.7259L66.9981 13.6441L67.0552 13.5886L67.0737 13.5779L67.0877 13.6282L67.0875 13.7005L67.0337 13.7927L66.9661 13.9029L66.9105 14.0111L66.8376 14.1251L66.7625 14.226L66.6565 14.3668L66.5364 14.4574L66.4619 14.5299L66.359 14.615L66.1276 14.7376L66.011 14.7599L65.8662 14.7746L65.761 14.7729L65.5618 14.6962L65.4715 14.6297L65.3049 14.5447L65.1954 14.4406L65.0839 14.3602L65.0043 14.2685L64.8798 14.1233L64.7712 14.053L64.6916 14.0036L64.6218 13.9521L64.5208 14.0125L64.4743 14.2046L64.4407 14.3428L64.4418 14.5111L64.4444 14.7442L64.4458 14.9748L64.472 15.0404L64.5196 15.1379L64.5708 15.196L64.5964 15.211L64.6377 15.2264L64.7518 15.2214L64.8251 15.2194L64.8906 15.1535L64.9579 15.0826L65.0424 15.0239L65.1193 14.9759L65.1596 14.9155L65.2228 14.8397L65.2729 14.7763L65.3326 14.7046L65.3996 14.6751L65.427 14.6696L65.4604 14.6957L65.4276 14.7509L65.3939 14.8064L65.3505 14.8863L65.2475 14.9855L65.2063 15.0427L65.1589 15.1162L65.111 15.1723L65.055 15.2533L64.9604 15.3504L64.8995 15.3976L64.8228 15.4971L64.7426 15.5347L64.6649 15.5647H64.5809L64.479 15.5028L64.4145 15.4358L64.3279 15.2538L64.2738 15.0774L64.2189 14.9195L64.1567 14.7908L64.1049 14.6141L64.0337 14.5788L63.8829 14.4672L63.8241 14.3891L63.7725 14.3214L63.7068 14.2335L63.6735 14.1459L63.6236 14.064L63.5715 13.863L63.5402 13.7178L63.5205 13.7745L63.5339 14.0007L63.5201 14.2971L63.5225 14.5513L63.5182 14.6913L63.5017 14.8087L63.4877 14.921L63.4695 15.076L63.3969 15.2937L63.3698 15.377L63.3463 15.4742L63.3101 15.565L63.2669 15.6411L63.2143 15.6984L63.1353 15.7712L63.0547 15.8542L62.9506 15.9219L62.8277 15.976L62.7335 15.9919L62.5972 15.9977L62.485 15.9902L62.378 15.9315L62.3765 15.8843L62.4898 15.8939L62.5526 15.8742L62.7026 15.8291L62.7746 15.7542L62.8352 15.6931L62.8951 15.6061L62.9584 15.5092L62.993 15.3562L63.0447 15.2486L63.051 15.0988L63.0461 14.7304L63.0039 14.737L62.9875 14.7902L62.9373 14.8718L62.8617 14.9762L62.7509 15.0985L62.6559 15.1723L62.5913 15.264L62.5269 15.364L62.4333 15.4632L62.3821 15.5613L62.3268 15.6651L62.2776 15.7143L62.2539 15.6683L62.2921 15.5017L62.3383 15.3747L62.4076 15.277L62.5028 15.1731L62.6019 15.0155L62.7035 14.9181L62.8258 14.7654L62.8305 14.7159L62.8613 14.6254L62.8609 13.6409L62.8348 13.6455L62.7992 13.6756L62.8044 13.7398L62.7929 13.8468L62.7989 13.9434L62.7806 14.0394L62.7448 14.1875L62.7169 14.2815L62.6818 14.4099L62.5918 14.6329L62.4956 14.8119L62.4744 14.9169L62.3742 15.1393L62.3073 15.2405L62.1953 15.4459L62.1258 15.5159L61.9748 15.6897L61.9328 15.7287L61.8677 15.7683L61.777 15.8363L61.5337 15.9847L61.3997 16L61.0329 15.9971L60.7989 15.9722L60.716 15.9592L60.6034 15.9103L60.517 15.8823L60.4158 15.8007L60.2807 15.7417L60.0483 15.5757L59.9439 15.4788L59.8697 15.4326L59.8001 15.3594L59.718 15.235L59.7361 15.2197L59.7823 15.2275L59.8193 15.2703L59.9163 15.3363L60.0752 15.4404L60.1414 15.5107L60.205 15.535L60.2416 15.5598L60.3456 15.5971L60.5762 15.6136L60.6752 15.6038L60.747 15.5922L60.8413 15.5457L61.2056 15.3715L61.3443 15.2507L61.6261 15.0014L61.846 14.7581L61.9674 14.5811L62.069 14.4093L62.0966 14.2913L62.0704 14.2176L62.0499 14.2081L62.0114 14.2176L61.9045 14.2769L61.7504 14.3888L61.5855 14.5056L61.3712 14.6644L61.2313 14.7683L60.9944 14.9354L60.8676 15.0459L60.7209 15.2136L60.6011 15.3238L60.5508 15.3837L60.4879 15.4086L60.4671 15.3843L60.4581 15.3522L60.4559 15.2804L60.443 15.1998L60.4579 15.1512L60.5386 15.0462L60.6438 14.9265L60.8305 14.7654L60.9178 14.7032L60.9715 14.6624L60.9095 14.68L60.815 14.7275L60.6885 14.8128L60.5962 14.844L60.4913 14.8897L60.347 14.9276L60.2213 14.962L60.0811 14.9881L59.8997 15.0144L59.6602 15.0167L59.3405 14.9909L59.1538 14.9426L59.0757 14.938L58.9786 14.8894L58.8999 14.8729L58.9412 14.842L59.1309 14.8648L59.3012 14.8703L59.4522 14.84L59.5715 14.8342L59.6871 14.8102L59.8059 14.7761L59.9294 14.7567L60.1404 14.7064L60.2754 14.6511L60.3775 14.6051L60.4565 14.5704L60.4948 14.5458L60.3426 14.562L60.2538 14.5667H60.1622L60.0379 14.5774L59.9388 14.558L59.8702 14.5458L59.7925 14.5048L59.6873 14.4397L59.4352 14.2167L59.3391 14.1123L59.2591 14.0287L59.074 13.7569L58.983 13.6218L58.9263 13.5209L58.8467 13.3529L58.7661 13.2872L58.7543 13.3236L58.7561 13.426V13.5154L58.7666 13.6079L58.8415 13.6774L58.9354 13.7988L59.006 13.8905L59.0954 13.9856L59.1476 14.0548L59.193 14.112L59.261 14.1846L59.3143 14.298V14.3657L59.2426 14.3758L59.0886 14.3804L58.5527 14.3674L58.4378 14.3535L58.361 14.2997L58.269 14.2587L58.2044 14.2205L58.0492 14.1632L57.9297 14.073L57.8268 13.9741L57.7118 13.8876L57.5325 13.6788L57.4287 13.5744L57.3581 13.4726L57.2949 13.3763L57.218 13.2632L57.0965 12.9783L57.0596 12.8797L57.0453 12.8115L57.0812 12.7875L57.1489 12.8603L57.2217 12.9665L57.2746 13.0584L57.3468 13.1553L57.462 13.2762L57.5341 13.3722L57.6154 13.4671L57.7565 13.5721L57.8567 13.6583L57.9667 13.754L58.0453 13.7861L58.1376 13.8032L58.1766 13.7676L58.1761 13.6938L58.1346 13.5608L58.0414 13.4023L57.9063 13.2644L57.7205 13.0926L57.5925 12.9867L57.4689 12.8985L57.3537 12.7961L57.2705 12.7481L57.1778 12.6992L57.205 12.6651L57.2933 12.6674L57.3941 12.6828L57.4735 12.7123L57.5555 12.7504L57.7099 12.8167L57.792 12.8913L57.8808 12.9757L57.9903 13.0929L58.0386 13.1235L58.0738 13.0743L58.0816 12.9014L58.07 12.7444L58.032 12.622L57.926 12.5098L57.8278 12.4311L57.7277 12.364L57.3935 12.3646L57.324 12.3826L57.2642 12.3962L57.1395 12.4008L57.0228 12.3707L56.9068 12.3412L56.8039 12.2753L56.5551 11.9832L56.465 11.8412L56.415 11.6994L56.356 11.5528L56.3137 11.3836L56.2913 11.261L56.2655 11.1479L56.2735 11.1121L56.3432 11.1034L56.3803 11.123L56.4032 11.2115L56.4636 11.3735L56.5043 11.4854L56.5549 11.6355L56.608 11.7261L56.6857 11.8238L56.7674 11.9224L56.8632 11.9895L56.969 12.0208L57.073 12.0182L57.188 11.9855L57.2461 11.9291L57.3268 11.8666L57.462 11.772L57.5791 11.7289L57.7008 11.7052L57.7919 11.7133L57.9051 11.7616L58.0631 11.7929L58.165 11.8464L58.2479 11.9294L58.2933 11.9713L58.4781 12.1353L58.5884 12.2481L58.7625 12.4416L58.8508 12.5781L58.9659 12.7227L59.0349 12.83L59.2254 13.105L59.3145 13.225L59.4226 13.3887L59.5642 13.5189L59.6996 13.5776L59.8168 13.6117L59.9296 13.6612L60.0082 13.6962L60.3279 13.7115L60.4277 13.7028L60.4808 13.6314L60.5674 13.5128L60.6318 13.4315L60.6809 13.3141L60.6654 13.2045L60.6517 12.8968L60.6237 12.7953L60.5677 12.6978L60.437 12.231L60.3247 11.8935V11.7998L60.2833 11.5236L60.2938 11.2506L60.3436 10.9952L60.4269 10.9154L60.4293 10.8425L60.4929 10.6777L60.5808 10.5631L60.677 10.4599L60.7737 10.3428L60.8927 10.2563L60.9934 10.186L61.139 10.1059L61.2636 10.0026L61.5156 9.86498L61.8547 9.55813L61.9199 9.48641L61.9478 9.44303V9.3875V9.3149L61.9488 9.25272L61.9348 9.13039L61.9123 9.09106L61.8661 9.03987L61.7832 8.94501L61.6886 8.9103L61.5935 8.90596L61.4946 8.92071L61.4116 8.95947L61.3129 8.99619L61.2203 9.08585L61.1138 9.14312L61.0218 9.21484L60.9576 9.26603L60.8854 9.31259L60.8196 9.3525L60.7503 9.45373L60.6602 9.476L60.5985 9.53528L60.4504 9.59717L60.3238 9.62494L60.202 9.67439L59.9876 9.74496L59.8723 9.77099L59.7531 9.81235L59.5647 9.89911L59.4404 9.91617L59.3141 9.93584L59.165 9.94596L59.0644 9.9717L58.9606 9.99773L58.6992 9.99224L58.1749 10.0055L57.7966 9.99339L57.6325 9.96418L57.5634 9.95695L57.4646 9.9396L57.4104 9.9315L57.3344 9.92572L57.2992 9.91299L57.2306 9.90547L57.2067 9.91126L57.2075 9.94509L57.2754 10.0099L57.3175 10.0616L57.342 10.1577L57.352 10.2519L57.3508 10.3792L57.3025 10.4738L57.2494 10.5212L57.1896 10.5669L57.0649 10.5657L57.0007 10.564L56.9531 10.5585L56.8847 10.5391L56.8453 10.5082L56.7773 10.4605L56.723 10.4321L56.627 10.3754L56.5437 10.3766L56.487 10.4032L56.4385 10.4648L56.4015 10.5362L56.435 10.6094L56.5159 10.7086L56.566 10.7933L56.5794 11.0134V11.0892L56.5192 11.0941L56.4881 11.0959L56.467 11.0727L56.4559 11.0314L56.4493 10.9628L56.4375 10.8856L56.3779 10.846L56.3019 10.796L56.2617 10.7497L56.2284 10.6863L56.2254 10.6166L56.2248 10.5033L56.2759 10.3864L56.3798 10.2745L56.4916 10.2401L56.6093 10.2415L56.6912 10.2583L56.7505 10.2924L56.8119 10.3162L56.8825 10.3199L56.9505 10.2988L57.0042 10.2331L57.0031 10.1232L56.9796 10.0437L56.9199 9.96216L56.8493 9.9182L56.8165 9.88754L56.7345 9.84213H56.6824L56.6403 9.86932L56.5455 9.94134L56.4916 9.99079L56.4058 10.0157L56.3048 10.0012L56.2478 9.95753L56.1744 9.90952L56.0919 9.82738L56.0414 9.73282L56.0318 9.60238L56.0288 9.37506L56.0643 9.31838L56.0901 9.22727L56.1252 9.12258L56.1661 9.07775L56.2126 9.04334L56.1847 9.12547L56.19 9.18447L56.1691 9.27239L56.1542 9.38692V9.48612L56.1505 9.61366L56.1634 9.67324L56.1873 9.71373L56.2855 9.76781L56.361 9.78574L56.4122 9.77301L56.4664 9.74612L56.5257 9.69551L56.5922 9.61424L56.6371 9.58792L56.8555 9.58676L57.0246 9.59341L57.1198 9.61279L57.2311 9.66254L57.3704 9.68047L57.4591 9.71112L57.5465 9.74872L57.7128 9.76839L57.8454 9.75335L57.8699 9.71546L57.8765 9.64374L57.8553 9.57982L57.7908 9.49132L57.7323 9.44187L57.6508 9.38287L57.5538 9.36552L57.4817 9.34932L57.434 9.36696L57.3595 9.41295L57.2986 9.46038L57.2102 9.5L57.1223 9.50983L56.9998 9.52632L56.9027 9.51417L56.8391 9.48699L56.7523 9.45286L56.7103 9.41439L56.6973 9.34903L56.8005 9.33313L56.8259 9.35453L56.8867 9.37969L56.9625 9.39299L56.9897 9.3739L57.0416 9.31866L57.1123 9.27644L57.1654 9.2024L57.2627 9.14167L57.3037 9.11882L57.4048 9.1032L57.5135 9.11188L57.6066 9.13386L57.7274 9.18418L57.832 9.22149L57.9254 9.27384L58.0228 9.34151L58.115 9.44042L58.1731 9.51562L58.2831 9.64836L58.3666 9.72616L58.5267 9.7253L58.6585 9.73166L58.8032 9.70621L58.9232 9.65646L59.0032 9.63246L59.2316 9.57635L59.3997 9.51446L59.5005 9.49682L59.5435 9.46443L59.5803 9.41729H59.5204L59.3768 9.41411L59.2921 9.39646L59.1985 9.3606L59.0857 9.33197L58.9568 9.30391L58.8513 9.26921L58.7893 9.23335L58.71 9.18968L58.6226 9.13241L58.5523 9.07226L58.5199 9.04015L58.4883 8.98549L58.4729 8.93141L58.5156 8.87791L58.5485 8.93893L58.5964 8.96178L58.6312 8.98694L58.7171 9.03437L58.8092 9.07226L58.8859 9.08788L58.9837 9.12605L59.0519 9.15931L59.1358 9.19633L59.3256 9.21715L59.5038 9.23769L59.6185 9.25446L59.8695 9.23595L60.0303 9.22756L60.1415 9.17059L60.2707 9.11072L60.4319 9.03611L60.5036 8.99619L60.6059 8.93633L60.8431 8.83366L60.9006 8.75904L60.9724 8.69137L60.9959 8.64278L61.0255 8.5699L60.9964 8.5164L60.888 8.45913L60.7583 8.4143L60.6027 8.37179L60.3851 8.34865L60.2301 8.32234L60.0497 8.28619L59.8593 8.26131L59.7038 8.22661L59.0759 8.19884H58.8947L58.717 8.20318L58.6849 8.26507L58.5519 8.33622L58.4732 8.38133L58.3966 8.45537L58.3115 8.47851L58.2305 8.52536L58.0836 8.61328L57.9602 8.65724L57.85 8.67344L57.4837 8.68009L57.3803 8.60316L57.3024 8.53751L57.2594 8.43946L57.2343 8.36745L57.2439 8.06205L57.2844 8.05135L57.2968 8.07419L57.3017 8.11497L57.3231 8.17628L57.3425 8.22285L57.3602 8.26334L57.3981 8.35299L57.4984 8.4412L57.6046 8.47764L57.7112 8.4762L57.8323 8.42529L58.0023 8.34461L58.1222 8.25726L58.2761 8.16096L58.4196 8.04759L58.5754 7.90269L58.6527 7.81333L58.7406 7.70401L58.7527 7.64414L58.6586 7.58456L58.5944 7.51717L58.4966 7.43012L58.3868 7.36331L58.2425 7.27366L58.1106 7.22045L57.9703 7.20049L57.7717 7.19615L57.6926 7.22594L57.58 7.25226L57.5241 7.28928L57.4003 7.35811L57.2824 7.41508L57.1841 7.4845L57.0987 7.55824L56.9919 7.64096L56.9663 7.72107L56.9054 7.82923L56.8359 7.91802L56.7517 8.02792L56.6682 8.16992L56.6002 8.24136L56.5462 8.36803L56.4871 8.41691L56.366 8.53028L56.3151 8.60981L56.2204 8.6584L56.1412 8.71595L56.0368 8.71306L56 8.64567L56.0289 8.56672L56.1355 8.53028L56.2341 8.45017L56.3949 8.23586L56.4841 8.08316L56.5534 7.93595L56.6315 7.78701L56.6645 7.71442L56.7624 7.43099L56.8701 7.34423L56.951 7.24358L57.0465 7.16839L57.1753 7.02378L57.2886 6.96941L57.3973 6.935L57.4939 6.91041L57.5965 6.88757L57.8028 6.89017L57.9103 6.87079L57.929 6.82191L57.8693 6.75308L57.8226 6.69003L57.7295 6.48759L57.7132 6.30162L57.7164 5.97482L57.7782 5.86434L57.7591 5.53348L57.7096 5.44151L57.6805 5.38367L57.6245 5.35851L57.4815 5.364L57.402 5.41519L57.342 5.49646L57.2783 5.53782L57.2215 5.54765L57.1647 5.55112L57.1681 5.48576L57.2629 5.41867L57.2904 5.33624L57.4078 5.23964L57.5022 5.20176L57.6149 5.19684L57.7488 5.23444L57.8606 5.27522L57.8989 5.32178L57.9917 5.44209L58.0188 5.56385L58.0441 5.68127L58.0457 5.82096L58.1248 5.66478L58.2459 5.49965L58.3339 5.43833L58.4517 5.30645L58.5219 5.27753L58.6039 5.23213L58.6917 5.19626L58.795 5.17573L58.9013 5.15896L58.9982 5.163L59.0664 5.17428L59.1076 5.19221L59.1122 5.23878L59.0604 5.27117L58.945 5.28331L58.8944 5.29951L58.8176 5.3374L58.7413 5.39408L58.6775 5.46668L58.6129 5.51382L58.5383 5.58236L58.482 5.63297L58.4079 5.70469L58.3574 5.77555L58.3082 5.83628L58.28 5.89586L58.273 5.96469L58.272 6.09079L58.2686 6.1628V6.19693L58.2889 6.23742L58.3344 6.35542L58.362 6.4228L58.4029 6.54254L58.426 6.58592L58.4534 6.65706L58.508 6.72503L58.5703 6.782L58.6053 6.85286L58.6846 6.88757L58.689 6.82162L58.6803 6.63595L58.6902 6.3612L58.7479 6.28254L58.7742 6.17611L58.8363 6.07951L58.8902 5.93953L58.9536 5.8412L59.0489 5.74229L59.1159 5.62979L59.2001 5.56558L59.3578 5.48663L59.4809 5.44412L59.5685 5.40623L59.7016 5.36719L59.9713 5.31281L60.0994 5.29344H60.2182L60.5151 5.30038L60.6395 5.28852L60.7401 5.34607L60.7957 5.38136L60.8343 5.40825L60.8813 5.44094L60.9206 5.47767L60.9672 5.51324L61.0081 5.57715L61.0542 5.67346L61.0568 5.76283L61.0329 5.78654L60.979 5.76051L60.9222 5.71568L60.8686 5.6723L60.7919 5.59884L60.7168 5.53898L60.6261 5.517L60.5071 5.49993L60.4264 5.49618L60.1606 5.49907L60.0474 5.50861L59.9501 5.53811L59.8385 5.5517L59.7836 5.58727L59.7122 5.61301L59.6156 5.65032L59.527 5.68387L59.4343 5.79637L59.393 5.83889L59.3416 5.93953L59.3251 6.06274L59.3179 6.13648L59.3094 6.25969L59.292 6.33431L59.2824 6.40314L59.2917 6.4471L59.3617 6.42743L59.4192 6.4014L59.4911 6.37017L59.6233 6.37046L59.6986 6.35831L59.7683 6.36236L59.8708 6.37104L59.9168 6.43235L59.9603 6.51333V6.56307H59.9035L59.8298 6.56972L59.7799 6.56799H59.697L59.6082 6.59112L59.5073 6.6588L59.4363 6.72503L59.3371 6.84013L59.2757 6.87484L59.2583 6.94309L59.2278 7.06861L59.2628 7.13744L59.3229 7.23404L59.3873 7.29593L59.4413 7.36592L59.5195 7.41884L59.6052 7.53077L59.7205 7.58601L59.7806 7.6265L59.9022 7.69475L59.9941 7.71008L59.9774 7.61464L59.9823 7.455L60.0328 7.27134L60.0991 7.13802L60.1441 6.97838L60.3248 6.69235L60.4048 6.55526L60.5021 6.43061L60.7553 6.25188L60.8606 6.13475L60.9561 6.10872L61.0186 6.03237L61.0974 6.00316L61.3636 5.94156L61.4523 5.90164L61.5344 5.93751L61.6464 5.97597L61.6543 6.07112L61.6489 6.15441L61.6181 6.15933L61.5631 6.17668L61.5333 6.15326L61.5328 6.10901L61.5117 6.07112L61.4341 6.07199L61.3763 6.09166L61.3129 6.1388L61.2465 6.16656L61.1275 6.23713L61.0403 6.28543L60.9674 6.33141L60.8731 6.47573L60.8145 6.53357L60.7642 6.61889L60.6842 6.7285L60.6392 6.82972L60.6097 6.90434L60.5612 7.09666L60.5191 7.16174L60.5031 7.29824L60.4913 7.42318L60.4994 7.53684L60.5808 7.7014L60.6632 7.74247L60.7715 7.74305L60.9128 7.74392L61.3476 7.7471L61.5136 7.78874L61.5982 7.82692L61.6269 7.86943L61.6697 7.83935L61.7513 7.71326L61.8584 7.63054L61.9724 7.55622L62.0507 7.50734L62.127 7.47235L62.1763 7.41508L62.1718 6.41904L62.1325 6.33315L62.1022 6.25448L62.0442 6.17061L62.0018 6.03035L61.9631 5.86983L61.884 5.76167L61.7985 5.683L61.7094 5.54013L61.5848 5.40305L61.4695 5.31889L61.4011 5.27782L61.3074 5.21709L61.1275 5.12598L61.0411 5.08521L60.9563 5.04356L60.8009 4.99729L60.6277 5.00191L60.539 4.95882L60.3992 4.9273L60.1217 4.91486L59.9908 4.8709L59.8184 4.85731L59.7587 4.8362L59.6797 4.81913L59.5964 4.79137L59.4812 4.75088L59.3982 4.7503L59.2822 4.71212L59.1463 4.68783L59.0186 4.60859L58.9058 4.5733L58.8309 4.54814L58.7324 4.50302L58.667 4.43651L58.6014 4.37173L58.5672 4.32111L58.5664 4.10276L58.6144 4.05302L58.6659 4.02641L58.6975 4.03682V4.10449L58.7148 4.20282L58.764 4.25083L58.8501 4.31446L58.9436 4.37144L59.0326 4.40556L59.1437 4.4582L59.2769 4.5412L59.3656 4.56463L59.4524 4.58285L59.5671 4.63144L59.682 4.64821L59.8117 4.66325L59.9625 4.70229L60.1179 4.71531L60.2304 4.73555L60.3892 4.72514L60.5662 4.71559L60.6109 4.67077L60.6203 4.59586L60.5945 4.4984L60.4847 4.3885L60.335 4.25835L60.1966 4.16899L60.0321 4.05186L59.92 4.03682L59.7835 4.02901L59.6371 4.03451L59.5004 4.03306L59.3884 4.06805L59.3077 4.10739L59.2079 4.14787L59.1231 4.15539L59.0941 4.09379L59.1872 4.03827L59.3017 3.97898L59.4594 3.9006L59.6105 3.82107L59.7306 3.79331L59.878 3.78492L59.9868 3.78897L60.0771 3.81124L60.1842 3.8442L60.2585 3.88238L60.3562 3.93762L60.451 3.99286L60.491 4.03451L60.5871 4.12214L60.6401 4.22162L60.7552 4.335L60.8932 4.47121L61.0264 4.60512L61.2715 4.81161L61.4007 4.86656L61.4972 4.90243L61.6094 4.96171L61.7251 5.02071L61.8315 5.04963L61.9926 5.05021L62.0116 5.00365L62.0304 4.96432L62.0573 4.879L62.088 4.79571L62.1156 4.71906L62.1329 4.67771L62.1912 4.5895L62.3161 4.41366L62.4174 4.32372L62.5351 4.29103L62.6354 4.27571L62.7232 4.30376L62.7342 4.35264L62.731 4.3937L62.6441 4.43824L62.5406 4.51604L62.4857 4.56578L62.4361 4.62478L62.4008 4.71155L62.3245 4.8602L62.2995 4.93308L62.2537 5.14565L62.2544 5.27955L62.3369 5.4097L62.379 5.49444L62.4204 5.60839L62.53 5.76254L62.5896 5.85103L62.6705 5.92131L62.726 5.90136L62.7826 5.80158L62.8515 5.66363L62.9403 5.51671L62.9865 5.42966L63.0944 5.30385L63.1527 5.18643L63.2198 5.04009L63.2354 4.70403L63.2266 4.47208L63.1277 4.34512L63.0269 4.22076L62.913 4.13197L62.8019 4.08425L62.6833 4.04L62.5863 4.02872L62.4666 4.01195L62.3271 3.98563L61.9307 3.97695L61.5795 3.97464L60.9157 3.97406L60.759 3.97869L60.6436 3.92518L60.5593 3.89424L60.4499 3.8497L60.2986 3.78897L60.171 3.70105L60.0665 3.58912L60.0615 3.50612L60.0941 3.44134L60.1574 3.39766L60.2697 3.32565L60.3725 3.30338L60.4985 3.27446L60.5268 3.34098L60.512 3.40084L60.523 3.46621L60.6419 3.52694L60.7715 3.57061L60.8956 3.63915L61.0315 3.66952L61.427 3.66489L61.7409 3.66547L62.2327 3.66229L62.4476 3.68051L62.5886 3.73026L62.7934 3.77335L63.0542 3.78318L63.134 3.81962L63.3522 3.85057L63.4087 3.91159L63.5292 3.95671L63.6343 4.0319L63.7702 4.10739L63.9268 4.17911L63.9286 4.09929L63.9347 3.90494L63.8983 3.7398L63.8462 3.61573L63.7692 3.52492L63.6246 3.39101L63.4407 3.31061L63.2866 3.22761L63.1669 3.17758L63.1022 3.17439L62.9271 3.17555L62.8567 3.18134L62.7605 3.19522L62.673 3.22183L62.544 3.24699L62.4072 3.24409L62.2529 3.24554L62.1383 3.22992L62.0392 3.20216L61.9649 3.18076L61.8981 3.13998L61.8737 3.08705L61.8966 3.00839Z" fill="url(#paint0_radial_3497_901)"/>
<path fill-rule="evenodd" clip-rule="evenodd" d="M64.0685 13.0653C63.9361 13.0653 63.8288 12.958 63.8288 12.8256C63.8288 12.6933 63.9361 12.586 64.0685 12.586C64.2008 12.586 64.3081 12.6933 64.3081 12.8256C64.3081 12.958 64.2008 13.0653 64.0685 13.0653ZM64.1307 12.982C64.0444 12.982 63.9745 12.912 63.9745 12.8257C63.9745 12.7393 64.0444 12.6694 64.1307 12.6694C64.2171 12.6694 64.287 12.7393 64.287 12.8257C64.287 12.912 64.2171 12.982 64.1307 12.982Z" fill="#7D5D5D"/>
<path fill-rule="evenodd" clip-rule="evenodd" d="M64.0685 13.0653C63.9361 13.0653 63.8288 12.958 63.8288 12.8256C63.8288 12.6933 63.9361 12.586 64.0685 12.586C64.2008 12.586 64.3081 12.6933 64.3081 12.8256C64.3081 12.958 64.2008 13.0653 64.0685 13.0653ZM64.1307 12.982C64.0444 12.982 63.9745 12.912 63.9745 12.8257C63.9745 12.7393 64.0444 12.6694 64.1307 12.6694C64.2171 12.6694 64.287 12.7393 64.287 12.8257C64.287 12.912 64.2171 12.982 64.1307 12.982Z" fill="#FF0000"/>
<path fill-rule="evenodd" clip-rule="evenodd" d="M63.9083 11.1481C63.7759 11.1481 63.6686 11.0408 63.6686 10.9085C63.6686 10.7761 63.7759 10.6688 63.9083 10.6688C64.0407 10.6688 64.1479 10.7761 64.1479 10.9085C64.1479 11.0408 64.0407 11.1481 63.9083 11.1481ZM63.971 11.0648C63.8847 11.0648 63.8147 10.9948 63.8147 10.9085C63.8147 10.8222 63.8847 10.7522 63.971 10.7522C64.0573 10.7522 64.1273 10.8222 64.1273 10.9085C64.1273 10.9948 64.0573 11.0648 63.971 11.0648Z" fill="#7D5D5D"/>
<path fill-rule="evenodd" clip-rule="evenodd" d="M61.4962 9.15648C61.6199 9.10937 61.7583 9.17144 61.8055 9.29512C61.8526 9.41881 61.7905 9.55727 61.6668 9.60439C61.5431 9.6515 61.4047 9.58943 61.3576 9.46575C61.3104 9.34206 61.3725 9.2036 61.4962 9.15648ZM61.4675 9.25664C61.5481 9.22591 61.6384 9.26639 61.6692 9.34705C61.6999 9.42772 61.6594 9.51802 61.5787 9.54875C61.4981 9.57947 61.4078 9.53899 61.3771 9.45833C61.3463 9.37766 61.3868 9.28736 61.4675 9.25664Z" fill="#7D5D5D"/>
<path fill-rule="evenodd" clip-rule="evenodd" d="M64.2044 7.73296C64.1486 7.853 64.0061 7.90512 63.8861 7.84937C63.766 7.79362 63.7139 7.65112 63.7697 7.53107C63.8254 7.41103 63.9679 7.35891 64.088 7.41466C64.208 7.47041 64.2601 7.61292 64.2044 7.73296ZM64.1552 7.64116C64.1189 7.71944 64.0259 7.75343 63.9476 7.71707C63.8694 7.68072 63.8354 7.58778 63.8717 7.50949C63.9081 7.4312 64.001 7.39721 64.0793 7.43357C64.1576 7.46993 64.1916 7.56287 64.1552 7.64116Z" fill="#7D5D5D"/>
<path fill-rule="evenodd" clip-rule="evenodd" d="M61.7938 7.17787C61.8788 7.27933 61.8654 7.43048 61.764 7.51548C61.6625 7.60048 61.5114 7.58715 61.4264 7.4857C61.3414 7.38424 61.3547 7.23309 61.4562 7.14809C61.5576 7.06309 61.7088 7.07642 61.7938 7.17787ZM61.6896 7.18348C61.745 7.24964 61.7363 7.34822 61.6702 7.40365C61.604 7.45909 61.5054 7.45039 61.45 7.38423C61.3946 7.31807 61.4032 7.21949 61.4694 7.16405C61.5356 7.10862 61.6342 7.11731 61.6896 7.18348Z" fill="#7D5D5D"/>
<path fill-rule="evenodd" clip-rule="evenodd" d="M63.9083 11.1481C63.7759 11.1481 63.6686 11.0408 63.6686 10.9085C63.6686 10.7761 63.7759 10.6688 63.9083 10.6688C64.0407 10.6688 64.1479 10.7761 64.1479 10.9085C64.1479 11.0408 64.0407 11.1481 63.9083 11.1481ZM63.971 11.0648C63.8847 11.0648 63.8147 10.9948 63.8147 10.9085C63.8147 10.8222 63.8847 10.7522 63.971 10.7522C64.0573 10.7522 64.1273 10.8222 64.1273 10.9085C64.1273 10.9948 64.0573 11.0648 63.971 11.0648Z" fill="#008000"/>
<path fill-rule="evenodd" clip-rule="evenodd" d="M61.4962 9.15648C61.6199 9.10937 61.7583 9.17144 61.8055 9.29512C61.8526 9.41881 61.7905 9.55727 61.6668 9.60439C61.5431 9.6515 61.4047 9.58943 61.3576 9.46575C61.3104 9.34206 61.3725 9.2036 61.4962 9.15648ZM61.4675 9.25664C61.5481 9.22591 61.6384 9.26639 61.6692 9.34705C61.6999 9.42772 61.6594 9.51802 61.5787 9.54875C61.4981 9.57947 61.4078 9.53899 61.3771 9.45833C61.3463 9.37766 61.3868 9.28736 61.4675 9.25664Z" fill="white"/>
<path fill-rule="evenodd" clip-rule="evenodd" d="M64.2044 7.73296C64.1486 7.853 64.0061 7.90512 63.8861 7.84937C63.766 7.79362 63.7139 7.65112 63.7697 7.53107C63.8254 7.41103 63.9679 7.35891 64.088 7.41466C64.208 7.47041 64.2601 7.61292 64.2044 7.73296ZM64.1552 7.64116C64.1189 7.71944 64.0259 7.75343 63.9476 7.71707C63.8694 7.68072 63.8354 7.58778 63.8717 7.50949C63.9081 7.4312 64.001 7.39721 64.0793 7.43357C64.1576 7.46993 64.1916 7.56287 64.1552 7.64116Z" fill="#0000FF"/>
<path fill-rule="evenodd" clip-rule="evenodd" d="M61.7938 7.17787C61.8788 7.27933 61.8654 7.43048 61.764 7.51548C61.6625 7.60048 61.5114 7.58715 61.4264 7.4857C61.3414 7.38424 61.3547 7.23309 61.4562 7.14809C61.5576 7.06309 61.7088 7.07642 61.7938 7.17787ZM61.6896 7.18348C61.745 7.24964 61.7363 7.34822 61.6702 7.40365C61.604 7.45909 61.5054 7.45039 61.45 7.38423C61.3946 7.31807 61.4032 7.21949 61.4694 7.16405C61.5356 7.10862 61.6342 7.11731 61.6896 7.18348Z" fill="#800080"/>
<path fill-rule="evenodd" clip-rule="evenodd" d="M60.3795 13.1449C60.5043 13.1889 60.5698 13.3258 60.5258 13.4506C60.4819 13.5754 60.345 13.641 60.2202 13.597C60.0953 13.553 60.0298 13.4161 60.0738 13.2913C60.1178 13.1665 60.2546 13.1009 60.3795 13.1449ZM60.2928 13.2028C60.3742 13.2315 60.417 13.3207 60.3883 13.4021C60.3596 13.4835 60.2703 13.5263 60.1889 13.4976C60.1075 13.4689 60.0648 13.3796 60.0935 13.2982C60.1222 13.2168 60.2114 13.1741 60.2928 13.2028Z" fill="#55E2F9"/>
<path d="M7.32386 6.71023C7.27841 6.25189 7.08333 5.89583 6.73864 5.64205C6.39394 5.38826 5.92614 5.26136 5.33523 5.26136C4.93371 5.26136 4.5947 5.31818 4.31818 5.43182C4.04167 5.54167 3.82955 5.69508 3.68182 5.89205C3.53788 6.08902 3.46591 6.3125 3.46591 6.5625C3.45833 6.77083 3.50189 6.95265 3.59659 7.10795C3.69508 7.26326 3.82955 7.39773 4 7.51136C4.17045 7.62121 4.36742 7.7178 4.59091 7.80114C4.81439 7.88068 5.05303 7.94886 5.30682 8.00568L6.35227 8.25568C6.85985 8.36932 7.32576 8.52083 7.75 8.71023C8.17424 8.89962 8.54167 9.13258 8.85227 9.40909C9.16288 9.68561 9.40341 10.0114 9.57386 10.3864C9.74811 10.7614 9.83712 11.1913 9.84091 11.6761C9.83712 12.3883 9.6553 13.0057 9.29545 13.5284C8.93939 14.0473 8.42424 14.4508 7.75 14.7386C7.07955 15.0227 6.27083 15.1648 5.32386 15.1648C4.38447 15.1648 3.56629 15.0208 2.86932 14.733C2.17614 14.4451 1.63447 14.0189 1.24432 13.4545C0.857955 12.8864 0.655303 12.1837 0.636364 11.3466H3.01705C3.04356 11.7367 3.1553 12.0625 3.35227 12.3239C3.55303 12.5814 3.82008 12.7765 4.15341 12.9091C4.49053 13.0379 4.87121 13.1023 5.29545 13.1023C5.71212 13.1023 6.07386 13.0417 6.38068 12.9205C6.69129 12.7992 6.93182 12.6307 7.10227 12.4148C7.27273 12.1989 7.35795 11.9508 7.35795 11.6705C7.35795 11.4091 7.2803 11.1894 7.125 11.0114C6.97348 10.8333 6.75 10.6818 6.45455 10.5568C6.16288 10.4318 5.80492 10.3182 5.38068 10.2159L4.11364 9.89773C3.13258 9.65909 2.35795 9.28598 1.78977 8.77841C1.22159 8.27083 0.939394 7.58712 0.943182 6.72727C0.939394 6.02273 1.12689 5.4072 1.50568 4.88068C1.88826 4.35417 2.41288 3.94318 3.07955 3.64773C3.74621 3.35227 4.50379 3.20455 5.35227 3.20455C6.21591 3.20455 6.9697 3.35227 7.61364 3.64773C8.26136 3.94318 8.76515 4.35417 9.125 4.88068C9.48485 5.4072 9.67045 6.01705 9.68182 6.71023H7.32386ZM18.4112 3.36364H20.8715V10.9205C20.8715 11.7689 20.6688 12.5114 20.2635 13.1477C19.862 13.7841 19.2995 14.2803 18.576 14.6364C17.8525 14.9886 17.0097 15.1648 16.0476 15.1648C15.0817 15.1648 14.237 14.9886 13.5135 14.6364C12.79 14.2803 12.2275 13.7841 11.826 13.1477C11.4245 12.5114 11.2237 11.7689 11.2237 10.9205V3.36364H13.684V10.7102C13.684 11.1534 13.7806 11.5473 13.9737 11.892C14.1707 12.2367 14.4472 12.5076 14.8033 12.7045C15.1593 12.9015 15.5741 13 16.0476 13C16.5249 13 16.9396 12.9015 17.2919 12.7045C17.648 12.5076 17.9226 12.2367 18.1158 11.892C18.3128 11.5473 18.4112 11.1534 18.4112 10.7102V3.36364ZM22.6236 15V3.36364H27.2827C28.1388 3.36364 28.8528 3.49053 29.4247 3.74432C29.9967 3.99811 30.4266 4.35038 30.7145 4.80114C31.0024 5.24811 31.1463 5.76326 31.1463 6.34659C31.1463 6.80114 31.0554 7.20076 30.8736 7.54545C30.6918 7.88636 30.4418 8.16667 30.1236 8.38636C29.8092 8.60227 29.4494 8.75568 29.0441 8.84659V8.96023C29.4872 8.97917 29.902 9.10417 30.2884 9.33523C30.6785 9.56629 30.9948 9.89015 31.2372 10.3068C31.4797 10.7197 31.6009 11.2121 31.6009 11.7841C31.6009 12.4015 31.4475 12.9527 31.1407 13.4375C30.8376 13.9186 30.3888 14.2992 29.7941 14.5795C29.1994 14.8598 28.4664 15 27.5952 15H22.6236ZM25.0838 12.9886H27.0895C27.7751 12.9886 28.2751 12.858 28.5895 12.5966C28.9039 12.3314 29.0611 11.9792 29.0611 11.5398C29.0611 11.2178 28.9835 10.9337 28.8282 10.6875C28.6729 10.4413 28.4513 10.2481 28.1634 10.108C27.8793 9.9678 27.5403 9.89773 27.1463 9.89773H25.0838V12.9886ZM25.0838 8.23295H26.9077C27.2448 8.23295 27.5441 8.17424 27.8054 8.05682C28.0706 7.93561 28.2789 7.76515 28.4304 7.54545C28.5857 7.32576 28.6634 7.0625 28.6634 6.75568C28.6634 6.33523 28.5138 5.99621 28.2145 5.73864C27.9191 5.48106 27.4986 5.35227 26.9532 5.35227H25.0838V8.23295ZM32.9297 15V3.36364H40.7706V5.39205H35.39V8.16477H40.3672V10.1932H35.39V12.9716H40.7934V15H32.9297ZM42.4546 15V3.36364H47.0455C47.9243 3.36364 48.6743 3.52083 49.2955 3.83523C49.9205 4.14583 50.3959 4.58712 50.7217 5.15909C51.0512 5.72727 51.216 6.39583 51.216 7.16477C51.216 7.9375 51.0493 8.60227 50.716 9.15909C50.3826 9.71212 49.8997 10.1364 49.2671 10.4318C48.6383 10.7273 47.877 10.875 46.983 10.875H43.9092V8.89773H46.5853C47.055 8.89773 47.4451 8.83333 47.7557 8.70455C48.0664 8.57576 48.2974 8.38258 48.4489 8.125C48.6042 7.86742 48.6819 7.54735 48.6819 7.16477C48.6819 6.77841 48.6042 6.45265 48.4489 6.1875C48.2974 5.92235 48.0645 5.72159 47.7501 5.58523C47.4395 5.44508 47.0474 5.375 46.5739 5.375H44.9148V15H42.4546ZM48.7387 9.70455L51.6307 15H48.9148L46.0853 9.70455H48.7387ZM83.5364 7.4375H81.0478C81.0023 7.11553 80.9095 6.82955 80.7694 6.57955C80.6292 6.32576 80.4493 6.10985 80.2296 5.93182C80.0099 5.75379 79.7561 5.61742 79.4682 5.52273C79.1841 5.42803 78.8754 5.38068 78.5421 5.38068C77.9398 5.38068 77.4152 5.5303 76.9682 5.82955C76.5213 6.125 76.1747 6.55682 75.9285 7.125C75.6822 7.68939 75.5591 8.375 75.5591 9.18182C75.5591 10.0114 75.6822 10.7083 75.9285 11.2727C76.1785 11.8371 76.5269 12.2633 76.9739 12.5511C77.4209 12.839 77.9379 12.983 78.525 12.983C78.8546 12.983 79.1595 12.9394 79.4398 12.8523C79.7239 12.7652 79.9758 12.6383 80.1955 12.4716C80.4152 12.3011 80.597 12.0947 80.741 11.8523C80.8887 11.6098 80.991 11.3333 81.0478 11.0227L83.5364 11.0341C83.472 11.5682 83.311 12.0833 83.0535 12.5795C82.7997 13.072 82.4569 13.5133 82.025 13.9034C81.597 14.2898 81.0857 14.5966 80.491 14.8239C79.9 15.0473 79.2315 15.1591 78.4853 15.1591C77.4474 15.1591 76.5194 14.9242 75.7012 14.4545C74.8868 13.9848 74.2429 13.3049 73.7694 12.4148C73.2997 11.5246 73.0648 10.447 73.0648 9.18182C73.0648 7.91288 73.3035 6.83333 73.7807 5.94318C74.258 5.05303 74.9057 4.375 75.7239 3.90909C76.5421 3.43939 77.4625 3.20455 78.4853 3.20455C79.1595 3.20455 79.7845 3.29924 80.3603 3.48864C80.9398 3.67803 81.4531 3.95455 81.9 4.31818C82.347 4.67803 82.7107 5.11932 82.991 5.64205C83.275 6.16477 83.4569 6.76326 83.5364 7.4375ZM84.9832 15V6.27273H87.3298V7.79545H87.4207C87.5798 7.25379 87.8468 6.8447 88.2218 6.56818C88.5968 6.28788 89.0286 6.14773 89.5173 6.14773C89.6385 6.14773 89.7691 6.1553 89.9093 6.17045C90.0494 6.18561 90.1726 6.20644 90.2786 6.23295V8.38068C90.165 8.34659 90.0078 8.31629 89.807 8.28977C89.6063 8.26326 89.4226 8.25 89.2559 8.25C88.8998 8.25 88.5816 8.32765 88.3013 8.48295C88.0248 8.63447 87.8051 8.84659 87.6423 9.11932C87.4832 9.39205 87.4036 9.70644 87.4036 10.0625V15H84.9832ZM93.4967 15.1648C92.9398 15.1648 92.4436 15.0682 92.008 14.875C91.5724 14.678 91.2277 14.3883 90.9739 14.0057C90.7239 13.6193 90.5989 13.1383 90.5989 12.5625C90.5989 12.0777 90.688 11.6705 90.866 11.3409C91.044 11.0114 91.2864 10.7462 91.5933 10.5455C91.9001 10.3447 92.2486 10.1932 92.6387 10.0909C93.0327 9.98864 93.4455 9.91667 93.8773 9.875C94.3849 9.82197 94.794 9.77273 95.1046 9.72727C95.4152 9.67803 95.6406 9.60606 95.7808 9.51136C95.9209 9.41667 95.991 9.27652 95.991 9.09091V9.05682C95.991 8.69697 95.8773 8.41856 95.6501 8.22159C95.4266 8.02462 95.1084 7.92614 94.6955 7.92614C94.2599 7.92614 93.9133 8.02273 93.6558 8.21591C93.3982 8.4053 93.2277 8.64394 93.1444 8.93182L90.9058 8.75C91.0194 8.2197 91.2429 7.76136 91.5762 7.375C91.9095 6.98485 92.3395 6.68561 92.866 6.47727C93.3963 6.26515 94.0099 6.15909 94.7069 6.15909C95.1917 6.15909 95.6558 6.21591 96.0989 6.32955C96.5459 6.44318 96.9417 6.61932 97.2864 6.85795C97.6349 7.09659 97.9095 7.40341 98.1103 7.77841C98.3111 8.14962 98.4114 8.5947 98.4114 9.11364V15H96.116V13.7898H96.0478C95.9077 14.0625 95.7202 14.303 95.4853 14.5114C95.2505 14.7159 94.9683 14.8769 94.6387 14.9943C94.3092 15.108 93.9285 15.1648 93.4967 15.1648ZM94.1898 13.4943C94.5459 13.4943 94.8603 13.4242 95.133 13.2841C95.4058 13.1402 95.6198 12.947 95.7751 12.7045C95.9304 12.4621 96.008 12.1875 96.008 11.8807V10.9545C95.9323 11.0038 95.8281 11.0492 95.6955 11.0909C95.5667 11.1288 95.4209 11.1648 95.258 11.1989C95.0952 11.2292 94.9323 11.2576 94.7694 11.2841C94.6065 11.3068 94.4588 11.3277 94.3262 11.3466C94.0421 11.3883 93.794 11.4545 93.5819 11.5455C93.3698 11.6364 93.205 11.7595 93.0876 11.9148C92.9702 12.0663 92.9114 12.2557 92.9114 12.483C92.9114 12.8125 93.0308 13.0644 93.2694 13.2386C93.5118 13.4091 93.8186 13.4943 94.1898 13.4943ZM104.71 6.27273V8.09091H99.3241V6.27273H104.71ZM100.557 15V5.64205C100.557 5.00947 100.68 4.48485 100.926 4.06818C101.176 3.65151 101.517 3.33901 101.949 3.13068C102.381 2.92235 102.871 2.81818 103.421 2.81818C103.792 2.81818 104.131 2.84659 104.438 2.90341C104.748 2.96023 104.979 3.01136 105.131 3.05682L104.699 4.875C104.604 4.8447 104.487 4.81629 104.347 4.78977C104.21 4.76326 104.07 4.75 103.926 4.75C103.57 4.75 103.322 4.83333 103.182 5C103.042 5.16288 102.972 5.39205 102.972 5.6875V15H100.557ZM110.559 6.27273V8.09091H105.304V6.27273H110.559ZM106.497 4.18182H108.917V12.3182C108.917 12.5417 108.951 12.7159 109.019 12.8409C109.088 12.9621 109.182 13.0473 109.304 13.0966C109.429 13.1458 109.572 13.1705 109.735 13.1705C109.849 13.1705 109.963 13.161 110.076 13.142C110.19 13.1193 110.277 13.1023 110.338 13.0909L110.718 14.892C110.597 14.9299 110.427 14.9735 110.207 15.0227C109.987 15.0758 109.72 15.108 109.406 15.1193C108.822 15.142 108.311 15.0644 107.872 14.8864C107.436 14.7083 107.097 14.4318 106.855 14.0568C106.612 13.6818 106.493 13.2083 106.497 12.6364V4.18182ZM115.747 15.1705C114.85 15.1705 114.077 14.9886 113.429 14.625C112.785 14.2576 112.289 13.7386 111.941 13.0682C111.592 12.3939 111.418 11.5966 111.418 10.6761C111.418 9.77841 111.592 8.99053 111.941 8.3125C112.289 7.63447 112.78 7.10606 113.412 6.72727C114.049 6.34848 114.795 6.15909 115.651 6.15909C116.227 6.15909 116.763 6.25189 117.259 6.4375C117.759 6.61932 118.194 6.89394 118.566 7.26136C118.941 7.62879 119.232 8.09091 119.441 8.64773C119.649 9.20076 119.753 9.84848 119.753 10.5909V11.2557H112.384V9.75568H117.475C117.475 9.4072 117.399 9.09848 117.247 8.82955C117.096 8.56061 116.886 8.35038 116.617 8.19886C116.352 8.04356 116.043 7.96591 115.691 7.96591C115.323 7.96591 114.997 8.05114 114.713 8.22159C114.433 8.38826 114.213 8.61364 114.054 8.89773C113.895 9.17803 113.814 9.49053 113.81 9.83523V11.2614C113.81 11.6932 113.889 12.0663 114.049 12.3807C114.211 12.6951 114.441 12.9375 114.736 13.108C115.032 13.2784 115.382 13.3636 115.787 13.3636C116.056 13.3636 116.302 13.3258 116.526 13.25C116.749 13.1742 116.941 13.0606 117.1 12.9091C117.259 12.7576 117.38 12.572 117.463 12.3523L119.702 12.5C119.588 13.0379 119.355 13.5076 119.003 13.9091C118.655 14.3068 118.204 14.6174 117.651 14.8409C117.102 15.0606 116.467 15.1705 115.747 15.1705ZM122.927 6.27273L124.529 9.32386L126.171 6.27273H128.654L126.126 10.6364L128.723 15H126.251L124.529 11.983L122.836 15H120.336L122.927 10.6364L120.427 6.27273H122.927Z" fill="url(#paint1_radial_3497_901)"/>
<path d="M7.32386 6.71023C7.27841 6.25189 7.08333 5.89583 6.73864 5.64205C6.39394 5.38826 5.92614 5.26136 5.33523 5.26136C4.93371 5.26136 4.5947 5.31818 4.31818 5.43182C4.04167 5.54167 3.82955 5.69508 3.68182 5.89205C3.53788 6.08902 3.46591 6.3125 3.46591 6.5625C3.45833 6.77083 3.50189 6.95265 3.59659 7.10795C3.69508 7.26326 3.82955 7.39773 4 7.51136C4.17045 7.62121 4.36742 7.7178 4.59091 7.80114C4.81439 7.88068 5.05303 7.94886 5.30682 8.00568L6.35227 8.25568C6.85985 8.36932 7.32576 8.52083 7.75 8.71023C8.17424 8.89962 8.54167 9.13258 8.85227 9.40909C9.16288 9.68561 9.40341 10.0114 9.57386 10.3864C9.74811 10.7614 9.83712 11.1913 9.84091 11.6761C9.83712 12.3883 9.6553 13.0057 9.29545 13.5284C8.93939 14.0473 8.42424 14.4508 7.75 14.7386C7.07955 15.0227 6.27083 15.1648 5.32386 15.1648C4.38447 15.1648 3.56629 15.0208 2.86932 14.733C2.17614 14.4451 1.63447 14.0189 1.24432 13.4545C0.857955 12.8864 0.655303 12.1837 0.636364 11.3466H3.01705C3.04356 11.7367 3.1553 12.0625 3.35227 12.3239C3.55303 12.5814 3.82008 12.7765 4.15341 12.9091C4.49053 13.0379 4.87121 13.1023 5.29545 13.1023C5.71212 13.1023 6.07386 13.0417 6.38068 12.9205C6.69129 12.7992 6.93182 12.6307 7.10227 12.4148C7.27273 12.1989 7.35795 11.9508 7.35795 11.6705C7.35795 11.4091 7.2803 11.1894 7.125 11.0114C6.97348 10.8333 6.75 10.6818 6.45455 10.5568C6.16288 10.4318 5.80492 10.3182 5.38068 10.2159L4.11364 9.89773C3.13258 9.65909 2.35795 9.28598 1.78977 8.77841C1.22159 8.27083 0.939394 7.58712 0.943182 6.72727C0.939394 6.02273 1.12689 5.4072 1.50568 4.88068C1.88826 4.35417 2.41288 3.94318 3.07955 3.64773C3.74621 3.35227 4.50379 3.20455 5.35227 3.20455C6.21591 3.20455 6.9697 3.35227 7.61364 3.64773C8.26136 3.94318 8.76515 4.35417 9.125 4.88068C9.48485 5.4072 9.67045 6.01705 9.68182 6.71023H7.32386ZM18.4112 3.36364H20.8715V10.9205C20.8715 11.7689 20.6688 12.5114 20.2635 13.1477C19.862 13.7841 19.2995 14.2803 18.576 14.6364C17.8525 14.9886 17.0097 15.1648 16.0476 15.1648C15.0817 15.1648 14.237 14.9886 13.5135 14.6364C12.79 14.2803 12.2275 13.7841 11.826 13.1477C11.4245 12.5114 11.2237 11.7689 11.2237 10.9205V3.36364H13.684V10.7102C13.684 11.1534 13.7806 11.5473 13.9737 11.892C14.1707 12.2367 14.4472 12.5076 14.8033 12.7045C15.1593 12.9015 15.5741 13 16.0476 13C16.5249 13 16.9396 12.9015 17.2919 12.7045C17.648 12.5076 17.9226 12.2367 18.1158 11.892C18.3128 11.5473 18.4112 11.1534 18.4112 10.7102V3.36364ZM22.6236 15V3.36364H27.2827C28.1388 3.36364 28.8528 3.49053 29.4247 3.74432C29.9967 3.99811 30.4266 4.35038 30.7145 4.80114C31.0024 5.24811 31.1463 5.76326 31.1463 6.34659C31.1463 6.80114 31.0554 7.20076 30.8736 7.54545C30.6918 7.88636 30.4418 8.16667 30.1236 8.38636C29.8092 8.60227 29.4494 8.75568 29.0441 8.84659V8.96023C29.4872 8.97917 29.902 9.10417 30.2884 9.33523C30.6785 9.56629 30.9948 9.89015 31.2372 10.3068C31.4797 10.7197 31.6009 11.2121 31.6009 11.7841C31.6009 12.4015 31.4475 12.9527 31.1407 13.4375C30.8376 13.9186 30.3888 14.2992 29.7941 14.5795C29.1994 14.8598 28.4664 15 27.5952 15H22.6236ZM25.0838 12.9886H27.0895C27.7751 12.9886 28.2751 12.858 28.5895 12.5966C28.9039 12.3314 29.0611 11.9792 29.0611 11.5398C29.0611 11.2178 28.9835 10.9337 28.8282 10.6875C28.6729 10.4413 28.4513 10.2481 28.1634 10.108C27.8793 9.9678 27.5403 9.89773 27.1463 9.89773H25.0838V12.9886ZM25.0838 8.23295H26.9077C27.2448 8.23295 27.5441 8.17424 27.8054 8.05682C28.0706 7.93561 28.2789 7.76515 28.4304 7.54545C28.5857 7.32576 28.6634 7.0625 28.6634 6.75568C28.6634 6.33523 28.5138 5.99621 28.2145 5.73864C27.9191 5.48106 27.4986 5.35227 26.9532 5.35227H25.0838V8.23295ZM32.9297 15V3.36364H40.7706V5.39205H35.39V8.16477H40.3672V10.1932H35.39V12.9716H40.7934V15H32.9297ZM42.4546 15V3.36364H47.0455C47.9243 3.36364 48.6743 3.52083 49.2955 3.83523C49.9205 4.14583 50.3959 4.58712 50.7217 5.15909C51.0512 5.72727 51.216 6.39583 51.216 7.16477C51.216 7.9375 51.0493 8.60227 50.716 9.15909C50.3826 9.71212 49.8997 10.1364 49.2671 10.4318C48.6383 10.7273 47.877 10.875 46.983 10.875H43.9092V8.89773H46.5853C47.055 8.89773 47.4451 8.83333 47.7557 8.70455C48.0664 8.57576 48.2974 8.38258 48.4489 8.125C48.6042 7.86742 48.6819 7.54735 48.6819 7.16477C48.6819 6.77841 48.6042 6.45265 48.4489 6.1875C48.2974 5.92235 48.0645 5.72159 47.7501 5.58523C47.4395 5.44508 47.0474 5.375 46.5739 5.375H44.9148V15H42.4546ZM48.7387 9.70455L51.6307 15H48.9148L46.0853 9.70455H48.7387ZM83.5364 7.4375H81.0478C81.0023 7.11553 80.9095 6.82955 80.7694 6.57955C80.6292 6.32576 80.4493 6.10985 80.2296 5.93182C80.0099 5.75379 79.7561 5.61742 79.4682 5.52273C79.1841 5.42803 78.8754 5.38068 78.5421 5.38068C77.9398 5.38068 77.4152 5.5303 76.9682 5.82955C76.5213 6.125 76.1747 6.55682 75.9285 7.125C75.6822 7.68939 75.5591 8.375 75.5591 9.18182C75.5591 10.0114 75.6822 10.7083 75.9285 11.2727C76.1785 11.8371 76.5269 12.2633 76.9739 12.5511C77.4209 12.839 77.9379 12.983 78.525 12.983C78.8546 12.983 79.1595 12.9394 79.4398 12.8523C79.7239 12.7652 79.9758 12.6383 80.1955 12.4716C80.4152 12.3011 80.597 12.0947 80.741 11.8523C80.8887 11.6098 80.991 11.3333 81.0478 11.0227L83.5364 11.0341C83.472 11.5682 83.311 12.0833 83.0535 12.5795C82.7997 13.072 82.4569 13.5133 82.025 13.9034C81.597 14.2898 81.0857 14.5966 80.491 14.8239C79.9 15.0473 79.2315 15.1591 78.4853 15.1591C77.4474 15.1591 76.5194 14.9242 75.7012 14.4545C74.8868 13.9848 74.2429 13.3049 73.7694 12.4148C73.2997 11.5246 73.0648 10.447 73.0648 9.18182C73.0648 7.91288 73.3035 6.83333 73.7807 5.94318C74.258 5.05303 74.9057 4.375 75.7239 3.90909C76.5421 3.43939 77.4625 3.20455 78.4853 3.20455C79.1595 3.20455 79.7845 3.29924 80.3603 3.48864C80.9398 3.67803 81.4531 3.95455 81.9 4.31818C82.347 4.67803 82.7107 5.11932 82.991 5.64205C83.275 6.16477 83.4569 6.76326 83.5364 7.4375ZM84.9832 15V6.27273H87.3298V7.79545H87.4207C87.5798 7.25379 87.8468 6.8447 88.2218 6.56818C88.5968 6.28788 89.0286 6.14773 89.5173 6.14773C89.6385 6.14773 89.7691 6.1553 89.9093 6.17045C90.0494 6.18561 90.1726 6.20644 90.2786 6.23295V8.38068C90.165 8.34659 90.0078 8.31629 89.807 8.28977C89.6063 8.26326 89.4226 8.25 89.2559 8.25C88.8998 8.25 88.5816 8.32765 88.3013 8.48295C88.0248 8.63447 87.8051 8.84659 87.6423 9.11932C87.4832 9.39205 87.4036 9.70644 87.4036 10.0625V15H84.9832ZM93.4967 15.1648C92.9398 15.1648 92.4436 15.0682 92.008 14.875C91.5724 14.678 91.2277 14.3883 90.9739 14.0057C90.7239 13.6193 90.5989 13.1383 90.5989 12.5625C90.5989 12.0777 90.688 11.6705 90.866 11.3409C91.044 11.0114 91.2864 10.7462 91.5933 10.5455C91.9001 10.3447 92.2486 10.1932 92.6387 10.0909C93.0327 9.98864 93.4455 9.91667 93.8773 9.875C94.3849 9.82197 94.794 9.77273 95.1046 9.72727C95.4152 9.67803 95.6406 9.60606 95.7808 9.51136C95.9209 9.41667 95.991 9.27652 95.991 9.09091V9.05682C95.991 8.69697 95.8773 8.41856 95.6501 8.22159C95.4266 8.02462 95.1084 7.92614 94.6955 7.92614C94.2599 7.92614 93.9133 8.02273 93.6558 8.21591C93.3982 8.4053 93.2277 8.64394 93.1444 8.93182L90.9058 8.75C91.0194 8.2197 91.2429 7.76136 91.5762 7.375C91.9095 6.98485 92.3395 6.68561 92.866 6.47727C93.3963 6.26515 94.0099 6.15909 94.7069 6.15909C95.1917 6.15909 95.6558 6.21591 96.0989 6.32955C96.5459 6.44318 96.9417 6.61932 97.2864 6.85795C97.6349 7.09659 97.9095 7.40341 98.1103 7.77841C98.3111 8.14962 98.4114 8.5947 98.4114 9.11364V15H96.116V13.7898H96.0478C95.9077 14.0625 95.7202 14.303 95.4853 14.5114C95.2505 14.7159 94.9683 14.8769 94.6387 14.9943C94.3092 15.108 93.9285 15.1648 93.4967 15.1648ZM94.1898 13.4943C94.5459 13.4943 94.8603 13.4242 95.133 13.2841C95.4058 13.1402 95.6198 12.947 95.7751 12.7045C95.9304 12.4621 96.008 12.1875 96.008 11.8807V10.9545C95.9323 11.0038 95.8281 11.0492 95.6955 11.0909C95.5667 11.1288 95.4209 11.1648 95.258 11.1989C95.0952 11.2292 94.9323 11.2576 94.7694 11.2841C94.6065 11.3068 94.4588 11.3277 94.3262 11.3466C94.0421 11.3883 93.794 11.4545 93.5819 11.5455C93.3698 11.6364 93.205 11.7595 93.0876 11.9148C92.9702 12.0663 92.9114 12.2557 92.9114 12.483C92.9114 12.8125 93.0308 13.0644 93.2694 13.2386C93.5118 13.4091 93.8186 13.4943 94.1898 13.4943ZM104.71 6.27273V8.09091H99.3241V6.27273H104.71ZM100.557 15V5.64205C100.557 5.00947 100.68 4.48485 100.926 4.06818C101.176 3.65151 101.517 3.33901 101.949 3.13068C102.381 2.92235 102.871 2.81818 103.421 2.81818C103.792 2.81818 104.131 2.84659 104.438 2.90341C104.748 2.96023 104.979 3.01136 105.131 3.05682L104.699 4.875C104.604 4.8447 104.487 4.81629 104.347 4.78977C104.21 4.76326 104.07 4.75 103.926 4.75C103.57 4.75 103.322 4.83333 103.182 5C103.042 5.16288 102.972 5.39205 102.972 5.6875V15H100.557ZM110.559 6.27273V8.09091H105.304V6.27273H110.559ZM106.497 4.18182H108.917V12.3182C108.917 12.5417 108.951 12.7159 109.019 12.8409C109.088 12.9621 109.182 13.0473 109.304 13.0966C109.429 13.1458 109.572 13.1705 109.735 13.1705C109.849 13.1705 109.963 13.161 110.076 13.142C110.19 13.1193 110.277 13.1023 110.338 13.0909L110.718 14.892C110.597 14.9299 110.427 14.9735 110.207 15.0227C109.987 15.0758 109.72 15.108 109.406 15.1193C108.822 15.142 108.311 15.0644 107.872 14.8864C107.436 14.7083 107.097 14.4318 106.855 14.0568C106.612 13.6818 106.493 13.2083 106.497 12.6364V4.18182ZM115.747 15.1705C114.85 15.1705 114.077 14.9886 113.429 14.625C112.785 14.2576 112.289 13.7386 111.941 13.0682C111.592 12.3939 111.418 11.5966 111.418 10.6761C111.418 9.77841 111.592 8.99053 111.941 8.3125C112.289 7.63447 112.78 7.10606 113.412 6.72727C114.049 6.34848 114.795 6.15909 115.651 6.15909C116.227 6.15909 116.763 6.25189 117.259 6.4375C117.759 6.61932 118.194 6.89394 118.566 7.26136C118.941 7.62879 119.232 8.09091 119.441 8.64773C119.649 9.20076 119.753 9.84848 119.753 10.5909V11.2557H112.384V9.75568H117.475C117.475 9.4072 117.399 9.09848 117.247 8.82955C117.096 8.56061 116.886 8.35038 116.617 8.19886C116.352 8.04356 116.043 7.96591 115.691 7.96591C115.323 7.96591 114.997 8.05114 114.713 8.22159C114.433 8.38826 114.213 8.61364 114.054 8.89773C113.895 9.17803 113.814 9.49053 113.81 9.83523V11.2614C113.81 11.6932 113.889 12.0663 114.049 12.3807C114.211 12.6951 114.441 12.9375 114.736 13.108C115.032 13.2784 115.382 13.3636 115.787 13.3636C116.056 13.3636 116.302 13.3258 116.526 13.25C116.749 13.1742 116.941 13.0606 117.1 12.9091C117.259 12.7576 117.38 12.572 117.463 12.3523L119.702 12.5C119.588 13.0379 119.355 13.5076 119.003 13.9091C118.655 14.3068 118.204 14.6174 117.651 14.8409C117.102 15.0606 116.467 15.1705 115.747 15.1705ZM122.927 6.27273L124.529 9.32386L126.171 6.27273H128.654L126.126 10.6364L128.723 15H126.251L124.529 11.983L122.836 15H120.336L122.927 10.6364L120.427 6.27273H122.927Z" fill="url(#paint2_radial_3497_901)"/>
<path d="M12.9062 23.8551C12.8911 23.7206 12.8286 23.6165 12.7188 23.5426C12.6089 23.4678 12.4706 23.4304 12.304 23.4304C12.1847 23.4304 12.0814 23.4493 11.9943 23.4872C11.9072 23.5241 11.8395 23.5753 11.7912 23.6406C11.7438 23.705 11.7202 23.7784 11.7202 23.8608C11.7202 23.9299 11.7363 23.9896 11.7685 24.0398C11.8016 24.09 11.8447 24.1321 11.8977 24.1662C11.9517 24.1993 12.0095 24.2273 12.071 24.25C12.1326 24.2718 12.1918 24.2898 12.2486 24.304L12.5327 24.3778C12.6255 24.4006 12.7206 24.4313 12.8182 24.4702C12.9157 24.509 13.0062 24.5601 13.0895 24.6236C13.1728 24.687 13.2401 24.7656 13.2912 24.8594C13.3433 24.9531 13.3693 25.0653 13.3693 25.196C13.3693 25.3608 13.3267 25.5071 13.2415 25.6349C13.1572 25.7628 13.0346 25.8636 12.8736 25.9375C12.7135 26.0114 12.5199 26.0483 12.2926 26.0483C12.0748 26.0483 11.8864 26.0137 11.7273 25.9446C11.5682 25.8755 11.4437 25.7775 11.3537 25.6506C11.2637 25.5227 11.214 25.3712 11.2045 25.196H11.6449C11.6534 25.3011 11.6875 25.3887 11.7472 25.4588C11.8078 25.5279 11.8849 25.5795 11.9787 25.6136C12.0734 25.6468 12.1771 25.6634 12.2898 25.6634C12.4138 25.6634 12.5241 25.6439 12.6207 25.6051C12.7183 25.5653 12.795 25.5104 12.8509 25.4403C12.9067 25.3693 12.9347 25.2865 12.9347 25.1918C12.9347 25.1056 12.91 25.035 12.8608 24.9801C12.8125 24.9252 12.7467 24.8797 12.6634 24.8438C12.581 24.8078 12.4877 24.776 12.3835 24.7486L12.0398 24.6548C11.8068 24.5914 11.6222 24.4981 11.4858 24.375C11.3504 24.2519 11.2827 24.089 11.2827 23.8864C11.2827 23.7187 11.3281 23.5724 11.419 23.4474C11.5099 23.3224 11.633 23.2254 11.7884 23.1562C11.9437 23.0862 12.1188 23.0511 12.3139 23.0511C12.5109 23.0511 12.6847 23.0857 12.8352 23.1548C12.9867 23.224 13.1061 23.3191 13.1932 23.4403C13.2803 23.5606 13.3258 23.6989 13.3295 23.8551H12.9062ZM16.7847 23.0909V26H16.3458V23.0909H16.7847ZM20.1813 23.0909L20.8774 24.2287H20.9001L21.5961 23.0909H22.1046L21.1984 24.5455L22.1103 26H21.599L20.9001 24.8778H20.8774L20.1785 26H19.6671L20.5947 24.5455L19.6728 23.0909H20.1813ZM28.5026 26V23.0909H29.5395C29.7649 23.0909 29.9519 23.1297 30.1006 23.2074C30.2502 23.285 30.362 23.3925 30.4358 23.5298C30.5097 23.6662 30.5466 23.8239 30.5466 24.0028C30.5466 24.1809 30.5092 24.3376 30.4344 24.473C30.3606 24.6075 30.2488 24.7121 30.0992 24.7869C29.9505 24.8617 29.7635 24.8991 29.5381 24.8991H28.7526V24.5213H29.4983C29.6404 24.5213 29.7559 24.5009 29.8449 24.4602C29.9349 24.4195 30.0007 24.3603 30.0424 24.2827C30.084 24.205 30.1049 24.1117 30.1049 24.0028C30.1049 23.893 30.0836 23.7978 30.041 23.7173C29.9993 23.6368 29.9335 23.5753 29.8435 23.5327C29.7545 23.4891 29.6375 23.4673 29.4927 23.4673H28.9415V26H28.5026ZM29.9387 24.6875L30.6574 26H30.1574L29.4529 24.6875H29.9387ZM33.9716 23.0909V26H33.5327V23.0909H33.9716ZM39.4109 23.0909V26H39.0075L37.5288 23.8665H37.5018V26H37.0629V23.0909H37.4691L38.9492 25.2273H38.9762V23.0909H39.4109ZM44.4719 24.0099C44.4444 23.9238 44.4075 23.8466 44.3611 23.7784C44.3156 23.7093 44.2612 23.6506 44.1977 23.6023C44.1343 23.553 44.0618 23.5156 43.9804 23.4901C43.8999 23.4645 43.8114 23.4517 43.7148 23.4517C43.551 23.4517 43.4032 23.4938 43.2716 23.5781C43.14 23.6624 43.0358 23.786 42.9591 23.9489C42.8833 24.1108 42.8455 24.3092 42.8455 24.544C42.8455 24.7798 42.8838 24.9792 42.9605 25.142C43.0372 25.3049 43.1423 25.4285 43.2759 25.5128C43.4094 25.5971 43.5614 25.6392 43.7318 25.6392C43.89 25.6392 44.0278 25.607 44.1452 25.5426C44.2635 25.4782 44.3549 25.3873 44.4193 25.2699C44.4847 25.1515 44.5173 25.0123 44.5173 24.8523L44.631 24.8736H43.7986V24.5114H44.9421V24.8423C44.9421 25.0866 44.89 25.2988 44.7858 25.4787C44.6826 25.6577 44.5396 25.7959 44.3568 25.8935C44.175 25.991 43.9667 26.0398 43.7318 26.0398C43.4686 26.0398 43.2375 25.9792 43.0386 25.858C42.8407 25.7367 42.6864 25.5649 42.5756 25.3423C42.4648 25.1188 42.4094 24.8537 42.4094 24.5469C42.4094 24.3149 42.4416 24.1065 42.506 23.9219C42.5704 23.7372 42.6608 23.5805 42.7773 23.4517C42.8947 23.322 43.0325 23.223 43.1906 23.1548C43.3497 23.0857 43.5235 23.0511 43.7119 23.0511C43.8691 23.0511 44.0154 23.0743 44.1509 23.1207C44.2872 23.1671 44.4084 23.233 44.5145 23.3182C44.6215 23.4034 44.71 23.5047 44.7801 23.6222C44.8502 23.7386 44.8975 23.8679 44.9222 24.0099H44.4719ZM49.5379 23.8551C49.5227 23.7206 49.4602 23.6165 49.3504 23.5426C49.2405 23.4678 49.1023 23.4304 48.9356 23.4304C48.8163 23.4304 48.7131 23.4493 48.6259 23.4872C48.5388 23.5241 48.4711 23.5753 48.4228 23.6406C48.3755 23.705 48.3518 23.7784 48.3518 23.8608C48.3518 23.9299 48.3679 23.9896 48.4001 24.0398C48.4332 24.09 48.4763 24.1321 48.5293 24.1662C48.5833 24.1993 48.6411 24.2273 48.7026 24.25C48.7642 24.2718 48.8234 24.2898 48.8802 24.304L49.1643 24.3778C49.2571 24.4006 49.3523 24.4313 49.4498 24.4702C49.5473 24.509 49.6378 24.5601 49.7211 24.6236C49.8044 24.687 49.8717 24.7656 49.9228 24.8594C49.9749 24.9531 50.0009 25.0653 50.0009 25.196C50.0009 25.3608 49.9583 25.5071 49.8731 25.6349C49.7888 25.7628 49.6662 25.8636 49.5052 25.9375C49.3452 26.0114 49.1515 26.0483 48.9242 26.0483C48.7064 26.0483 48.518 26.0137 48.3589 25.9446C48.1998 25.8755 48.0753 25.7775 47.9853 25.6506C47.8954 25.5227 47.8456 25.3712 47.8362 25.196H48.2765C48.285 25.3011 48.3191 25.3887 48.3788 25.4588C48.4394 25.5279 48.5166 25.5795 48.6103 25.6136C48.705 25.6468 48.8087 25.6634 48.9214 25.6634C49.0454 25.6634 49.1558 25.6439 49.2524 25.6051C49.3499 25.5653 49.4266 25.5104 49.4825 25.4403C49.5383 25.3693 49.5663 25.2865 49.5663 25.1918C49.5663 25.1056 49.5417 25.035 49.4924 24.9801C49.4441 24.9252 49.3783 24.8797 49.295 24.8438C49.2126 24.8078 49.1193 24.776 49.0151 24.7486L48.6714 24.6548C48.4384 24.5914 48.2538 24.4981 48.1174 24.375C47.982 24.2519 47.9143 24.089 47.9143 23.8864C47.9143 23.7187 47.9597 23.5724 48.0507 23.4474C48.1416 23.3224 48.2647 23.2254 48.42 23.1562C48.5753 23.0862 48.7505 23.0511 48.9455 23.0511C49.1425 23.0511 49.3163 23.0857 49.4668 23.1548C49.6184 23.224 49.7377 23.3191 49.8248 23.4403C49.9119 23.5606 49.9574 23.6989 49.9612 23.8551H49.5379ZM53.4959 25.6023L53.4746 25.7571C53.4604 25.8707 53.4363 25.9891 53.4022 26.1122C53.369 26.2363 53.3345 26.3513 53.2985 26.4574C53.2634 26.5634 53.2345 26.6477 53.2118 26.7102H52.9107C52.923 26.6515 52.94 26.572 52.9618 26.4716C52.9836 26.3722 53.0049 26.2609 53.0257 26.1378C53.0466 26.0147 53.0622 25.8892 53.0726 25.7614L53.0868 25.6023H53.4959ZM62.5725 24.5455C62.5725 24.8561 62.5157 25.1231 62.402 25.3466C62.2884 25.5691 62.1326 25.7405 61.9347 25.8608C61.7377 25.9801 61.5138 26.0398 61.2628 26.0398C61.0109 26.0398 60.786 25.9801 60.5881 25.8608C60.3912 25.7405 60.2358 25.5687 60.1222 25.3452C60.0086 25.1217 59.9518 24.8551 59.9518 24.5455C59.9518 24.2348 60.0086 23.9683 60.1222 23.7457C60.2358 23.5223 60.3912 23.3509 60.5881 23.2315C60.786 23.1113 61.0109 23.0511 61.2628 23.0511C61.5138 23.0511 61.7377 23.1113 61.9347 23.2315C62.1326 23.3509 62.2884 23.5223 62.402 23.7457C62.5157 23.9683 62.5725 24.2348 62.5725 24.5455ZM62.1378 24.5455C62.1378 24.3087 62.0995 24.1094 62.0228 23.9474C61.947 23.7846 61.8429 23.6615 61.7103 23.5781C61.5787 23.4938 61.4295 23.4517 61.2628 23.4517C61.0952 23.4517 60.9456 23.4938 60.814 23.5781C60.6823 23.6615 60.5782 23.7846 60.5015 23.9474C60.4257 24.1094 60.3878 24.3087 60.3878 24.5455C60.3878 24.7822 60.4257 24.982 60.5015 25.1449C60.5782 25.3068 60.6823 25.4299 60.814 25.5142C60.9456 25.5975 61.0952 25.6392 61.2628 25.6392C61.4295 25.6392 61.5787 25.5975 61.7103 25.5142C61.8429 25.4299 61.947 25.3068 62.0228 25.1449C62.0995 24.982 62.1378 24.7822 62.1378 24.5455ZM67.9197 23.0909V26H67.5163L66.0376 23.8665H66.0106V26H65.5717V23.0909H65.978L67.4581 25.2273H67.4851V23.0909H67.9197ZM71.012 26V23.0909H72.8359V23.4688H71.4509V24.3551H72.7407V24.7315H71.4509V25.6222H72.8529V26H71.012ZM79.639 23.0909L80.4487 25.4602H80.4813L81.291 23.0909H81.7654L80.7186 26H80.2115L79.1646 23.0909H79.639ZM85.0765 23.0909V26H84.6375V23.0909H85.0765ZM89.7543 23.8551C89.7392 23.7206 89.6767 23.6165 89.5668 23.5426C89.457 23.4678 89.3187 23.4304 89.152 23.4304C89.0327 23.4304 88.9295 23.4493 88.8424 23.4872C88.7553 23.5241 88.6875 23.5753 88.6393 23.6406C88.5919 23.705 88.5682 23.7784 88.5682 23.8608C88.5682 23.9299 88.5843 23.9896 88.6165 24.0398C88.6497 24.09 88.6928 24.1321 88.7458 24.1662C88.7998 24.1993 88.8575 24.2273 88.9191 24.25C88.9806 24.2718 89.0398 24.2898 89.0966 24.304L89.3807 24.3778C89.4735 24.4006 89.5687 24.4313 89.6662 24.4702C89.7638 24.509 89.8542 24.5601 89.9375 24.6236C90.0209 24.687 90.0881 24.7656 90.1393 24.8594C90.1913 24.9531 90.2174 25.0653 90.2174 25.196C90.2174 25.3608 90.1748 25.5071 90.0895 25.6349C90.0053 25.7628 89.8826 25.8636 89.7216 25.9375C89.5616 26.0114 89.3679 26.0483 89.1407 26.0483C88.9229 26.0483 88.7344 26.0137 88.5753 25.9446C88.4162 25.8755 88.2917 25.7775 88.2018 25.6506C88.1118 25.5227 88.0621 25.3712 88.0526 25.196H88.4929C88.5015 25.3011 88.5356 25.3887 88.5952 25.4588C88.6558 25.5279 88.733 25.5795 88.8268 25.6136C88.9215 25.6468 89.0251 25.6634 89.1378 25.6634C89.2619 25.6634 89.3722 25.6439 89.4688 25.6051C89.5663 25.5653 89.643 25.5104 89.6989 25.4403C89.7548 25.3693 89.7827 25.2865 89.7827 25.1918C89.7827 25.1056 89.7581 25.035 89.7089 24.9801C89.6606 24.9252 89.5947 24.8797 89.5114 24.8438C89.429 24.8078 89.3358 24.776 89.2316 24.7486L88.8878 24.6548C88.6549 24.5914 88.4702 24.4981 88.3339 24.375C88.1984 24.2519 88.1307 24.089 88.1307 23.8864C88.1307 23.7187 88.1762 23.5724 88.2671 23.4474C88.358 23.3224 88.4811 23.2254 88.6364 23.1562C88.7917 23.0862 88.9669 23.0511 89.162 23.0511C89.359 23.0511 89.5327 23.0857 89.6833 23.1548C89.8348 23.224 89.9541 23.3191 90.0412 23.4403C90.1284 23.5606 90.1738 23.6989 90.1776 23.8551H89.7543ZM93.6328 23.0909V26H93.1939V23.0909H93.6328ZM99.251 24.5455C99.251 24.8561 99.1942 25.1231 99.0805 25.3466C98.9669 25.5691 98.8111 25.7405 98.6132 25.8608C98.4162 25.9801 98.1923 26.0398 97.9413 26.0398C97.6894 26.0398 97.4645 25.9801 97.2666 25.8608C97.0696 25.7405 96.9143 25.5687 96.8007 25.3452C96.6871 25.1217 96.6303 24.8551 96.6303 24.5455C96.6303 24.2348 96.6871 23.9683 96.8007 23.7457C96.9143 23.5223 97.0696 23.3509 97.2666 23.2315C97.4645 23.1113 97.6894 23.0511 97.9413 23.0511C98.1923 23.0511 98.4162 23.1113 98.6132 23.2315C98.8111 23.3509 98.9669 23.5223 99.0805 23.7457C99.1942 23.9683 99.251 24.2348 99.251 24.5455ZM98.8163 24.5455C98.8163 24.3087 98.778 24.1094 98.7013 23.9474C98.6255 23.7846 98.5214 23.6615 98.3888 23.5781C98.2571 23.4938 98.108 23.4517 97.9413 23.4517C97.7737 23.4517 97.6241 23.4938 97.4925 23.5781C97.3608 23.6615 97.2567 23.7846 97.18 23.9474C97.1042 24.1094 97.0663 24.3087 97.0663 24.5455C97.0663 24.7822 97.1042 24.982 97.18 25.1449C97.2567 25.3068 97.3608 25.4299 97.4925 25.5142C97.6241 25.5975 97.7737 25.6392 97.9413 25.6392C98.108 25.6392 98.2571 25.5975 98.3888 25.5142C98.5214 25.4299 98.6255 25.3068 98.7013 25.1449C98.778 24.982 98.8163 24.7822 98.8163 24.5455ZM104.598 23.0909V26H104.195L102.716 23.8665H102.689V26H102.25V23.0909H102.656L104.137 25.2273H104.164V23.0909H104.598Z" fill="url(#paint3_radial_3497_901)"/>
<path d="M12.9062 23.8551C12.8911 23.7206 12.8286 23.6165 12.7188 23.5426C12.6089 23.4678 12.4706 23.4304 12.304 23.4304C12.1847 23.4304 12.0814 23.4493 11.9943 23.4872C11.9072 23.5241 11.8395 23.5753 11.7912 23.6406C11.7438 23.705 11.7202 23.7784 11.7202 23.8608C11.7202 23.9299 11.7363 23.9896 11.7685 24.0398C11.8016 24.09 11.8447 24.1321 11.8977 24.1662C11.9517 24.1993 12.0095 24.2273 12.071 24.25C12.1326 24.2718 12.1918 24.2898 12.2486 24.304L12.5327 24.3778C12.6255 24.4006 12.7206 24.4313 12.8182 24.4702C12.9157 24.509 13.0062 24.5601 13.0895 24.6236C13.1728 24.687 13.2401 24.7656 13.2912 24.8594C13.3433 24.9531 13.3693 25.0653 13.3693 25.196C13.3693 25.3608 13.3267 25.5071 13.2415 25.6349C13.1572 25.7628 13.0346 25.8636 12.8736 25.9375C12.7135 26.0114 12.5199 26.0483 12.2926 26.0483C12.0748 26.0483 11.8864 26.0137 11.7273 25.9446C11.5682 25.8755 11.4437 25.7775 11.3537 25.6506C11.2637 25.5227 11.214 25.3712 11.2045 25.196H11.6449C11.6534 25.3011 11.6875 25.3887 11.7472 25.4588C11.8078 25.5279 11.8849 25.5795 11.9787 25.6136C12.0734 25.6468 12.1771 25.6634 12.2898 25.6634C12.4138 25.6634 12.5241 25.6439 12.6207 25.6051C12.7183 25.5653 12.795 25.5104 12.8509 25.4403C12.9067 25.3693 12.9347 25.2865 12.9347 25.1918C12.9347 25.1056 12.91 25.035 12.8608 24.9801C12.8125 24.9252 12.7467 24.8797 12.6634 24.8438C12.581 24.8078 12.4877 24.776 12.3835 24.7486L12.0398 24.6548C11.8068 24.5914 11.6222 24.4981 11.4858 24.375C11.3504 24.2519 11.2827 24.089 11.2827 23.8864C11.2827 23.7187 11.3281 23.5724 11.419 23.4474C11.5099 23.3224 11.633 23.2254 11.7884 23.1562C11.9437 23.0862 12.1188 23.0511 12.3139 23.0511C12.5109 23.0511 12.6847 23.0857 12.8352 23.1548C12.9867 23.224 13.1061 23.3191 13.1932 23.4403C13.2803 23.5606 13.3258 23.6989 13.3295 23.8551H12.9062ZM16.7847 23.0909V26H16.3458V23.0909H16.7847ZM20.1813 23.0909L20.8774 24.2287H20.9001L21.5961 23.0909H22.1046L21.1984 24.5455L22.1103 26H21.599L20.9001 24.8778H20.8774L20.1785 26H19.6671L20.5947 24.5455L19.6728 23.0909H20.1813ZM28.5026 26V23.0909H29.5395C29.7649 23.0909 29.9519 23.1297 30.1006 23.2074C30.2502 23.285 30.362 23.3925 30.4358 23.5298C30.5097 23.6662 30.5466 23.8239 30.5466 24.0028C30.5466 24.1809 30.5092 24.3376 30.4344 24.473C30.3606 24.6075 30.2488 24.7121 30.0992 24.7869C29.9505 24.8617 29.7635 24.8991 29.5381 24.8991H28.7526V24.5213H29.4983C29.6404 24.5213 29.7559 24.5009 29.8449 24.4602C29.9349 24.4195 30.0007 24.3603 30.0424 24.2827C30.084 24.205 30.1049 24.1117 30.1049 24.0028C30.1049 23.893 30.0836 23.7978 30.041 23.7173C29.9993 23.6368 29.9335 23.5753 29.8435 23.5327C29.7545 23.4891 29.6375 23.4673 29.4927 23.4673H28.9415V26H28.5026ZM29.9387 24.6875L30.6574 26H30.1574L29.4529 24.6875H29.9387ZM33.9716 23.0909V26H33.5327V23.0909H33.9716ZM39.4109 23.0909V26H39.0075L37.5288 23.8665H37.5018V26H37.0629V23.0909H37.4691L38.9492 25.2273H38.9762V23.0909H39.4109ZM44.4719 24.0099C44.4444 23.9238 44.4075 23.8466 44.3611 23.7784C44.3156 23.7093 44.2612 23.6506 44.1977 23.6023C44.1343 23.553 44.0618 23.5156 43.9804 23.4901C43.8999 23.4645 43.8114 23.4517 43.7148 23.4517C43.551 23.4517 43.4032 23.4938 43.2716 23.5781C43.14 23.6624 43.0358 23.786 42.9591 23.9489C42.8833 24.1108 42.8455 24.3092 42.8455 24.544C42.8455 24.7798 42.8838 24.9792 42.9605 25.142C43.0372 25.3049 43.1423 25.4285 43.2759 25.5128C43.4094 25.5971 43.5614 25.6392 43.7318 25.6392C43.89 25.6392 44.0278 25.607 44.1452 25.5426C44.2635 25.4782 44.3549 25.3873 44.4193 25.2699C44.4847 25.1515 44.5173 25.0123 44.5173 24.8523L44.631 24.8736H43.7986V24.5114H44.9421V24.8423C44.9421 25.0866 44.89 25.2988 44.7858 25.4787C44.6826 25.6577 44.5396 25.7959 44.3568 25.8935C44.175 25.991 43.9667 26.0398 43.7318 26.0398C43.4686 26.0398 43.2375 25.9792 43.0386 25.858C42.8407 25.7367 42.6864 25.5649 42.5756 25.3423C42.4648 25.1188 42.4094 24.8537 42.4094 24.5469C42.4094 24.3149 42.4416 24.1065 42.506 23.9219C42.5704 23.7372 42.6608 23.5805 42.7773 23.4517C42.8947 23.322 43.0325 23.223 43.1906 23.1548C43.3497 23.0857 43.5235 23.0511 43.7119 23.0511C43.8691 23.0511 44.0154 23.0743 44.1509 23.1207C44.2872 23.1671 44.4084 23.233 44.5145 23.3182C44.6215 23.4034 44.71 23.5047 44.7801 23.6222C44.8502 23.7386 44.8975 23.8679 44.9222 24.0099H44.4719ZM49.5379 23.8551C49.5227 23.7206 49.4602 23.6165 49.3504 23.5426C49.2405 23.4678 49.1023 23.4304 48.9356 23.4304C48.8163 23.4304 48.7131 23.4493 48.6259 23.4872C48.5388 23.5241 48.4711 23.5753 48.4228 23.6406C48.3755 23.705 48.3518 23.7784 48.3518 23.8608C48.3518 23.9299 48.3679 23.9896 48.4001 24.0398C48.4332 24.09 48.4763 24.1321 48.5293 24.1662C48.5833 24.1993 48.6411 24.2273 48.7026 24.25C48.7642 24.2718 48.8234 24.2898 48.8802 24.304L49.1643 24.3778C49.2571 24.4006 49.3523 24.4313 49.4498 24.4702C49.5473 24.509 49.6378 24.5601 49.7211 24.6236C49.8044 24.687 49.8717 24.7656 49.9228 24.8594C49.9749 24.9531 50.0009 25.0653 50.0009 25.196C50.0009 25.3608 49.9583 25.5071 49.8731 25.6349C49.7888 25.7628 49.6662 25.8636 49.5052 25.9375C49.3452 26.0114 49.1515 26.0483 48.9242 26.0483C48.7064 26.0483 48.518 26.0137 48.3589 25.9446C48.1998 25.8755 48.0753 25.7775 47.9853 25.6506C47.8954 25.5227 47.8456 25.3712 47.8362 25.196H48.2765C48.285 25.3011 48.3191 25.3887 48.3788 25.4588C48.4394 25.5279 48.5166 25.5795 48.6103 25.6136C48.705 25.6468 48.8087 25.6634 48.9214 25.6634C49.0454 25.6634 49.1558 25.6439 49.2524 25.6051C49.3499 25.5653 49.4266 25.5104 49.4825 25.4403C49.5383 25.3693 49.5663 25.2865 49.5663 25.1918C49.5663 25.1056 49.5417 25.035 49.4924 24.9801C49.4441 24.9252 49.3783 24.8797 49.295 24.8438C49.2126 24.8078 49.1193 24.776 49.0151 24.7486L48.6714 24.6548C48.4384 24.5914 48.2538 24.4981 48.1174 24.375C47.982 24.2519 47.9143 24.089 47.9143 23.8864C47.9143 23.7187 47.9597 23.5724 48.0507 23.4474C48.1416 23.3224 48.2647 23.2254 48.42 23.1562C48.5753 23.0862 48.7505 23.0511 48.9455 23.0511C49.1425 23.0511 49.3163 23.0857 49.4668 23.1548C49.6184 23.224 49.7377 23.3191 49.8248 23.4403C49.9119 23.5606 49.9574 23.6989 49.9612 23.8551H49.5379ZM53.4959 25.6023L53.4746 25.7571C53.4604 25.8707 53.4363 25.9891 53.4022 26.1122C53.369 26.2363 53.3345 26.3513 53.2985 26.4574C53.2634 26.5634 53.2345 26.6477 53.2118 26.7102H52.9107C52.923 26.6515 52.94 26.572 52.9618 26.4716C52.9836 26.3722 53.0049 26.2609 53.0257 26.1378C53.0466 26.0147 53.0622 25.8892 53.0726 25.7614L53.0868 25.6023H53.4959ZM62.5725 24.5455C62.5725 24.8561 62.5157 25.1231 62.402 25.3466C62.2884 25.5691 62.1326 25.7405 61.9347 25.8608C61.7377 25.9801 61.5138 26.0398 61.2628 26.0398C61.0109 26.0398 60.786 25.9801 60.5881 25.8608C60.3912 25.7405 60.2358 25.5687 60.1222 25.3452C60.0086 25.1217 59.9518 24.8551 59.9518 24.5455C59.9518 24.2348 60.0086 23.9683 60.1222 23.7457C60.2358 23.5223 60.3912 23.3509 60.5881 23.2315C60.786 23.1113 61.0109 23.0511 61.2628 23.0511C61.5138 23.0511 61.7377 23.1113 61.9347 23.2315C62.1326 23.3509 62.2884 23.5223 62.402 23.7457C62.5157 23.9683 62.5725 24.2348 62.5725 24.5455ZM62.1378 24.5455C62.1378 24.3087 62.0995 24.1094 62.0228 23.9474C61.947 23.7846 61.8429 23.6615 61.7103 23.5781C61.5787 23.4938 61.4295 23.4517 61.2628 23.4517C61.0952 23.4517 60.9456 23.4938 60.814 23.5781C60.6823 23.6615 60.5782 23.7846 60.5015 23.9474C60.4257 24.1094 60.3878 24.3087 60.3878 24.5455C60.3878 24.7822 60.4257 24.982 60.5015 25.1449C60.5782 25.3068 60.6823 25.4299 60.814 25.5142C60.9456 25.5975 61.0952 25.6392 61.2628 25.6392C61.4295 25.6392 61.5787 25.5975 61.7103 25.5142C61.8429 25.4299 61.947 25.3068 62.0228 25.1449C62.0995 24.982 62.1378 24.7822 62.1378 24.5455ZM67.9197 23.0909V26H67.5163L66.0376 23.8665H66.0106V26H65.5717V23.0909H65.978L67.4581 25.2273H67.4851V23.0909H67.9197ZM71.012 26V23.0909H72.8359V23.4688H71.4509V24.3551H72.7407V24.7315H71.4509V25.6222H72.8529V26H71.012ZM79.639 23.0909L80.4487 25.4602H80.4813L81.291 23.0909H81.7654L80.7186 26H80.2115L79.1646 23.0909H79.639ZM85.0765 23.0909V26H84.6375V23.0909H85.0765ZM89.7543 23.8551C89.7392 23.7206 89.6767 23.6165 89.5668 23.5426C89.457 23.4678 89.3187 23.4304 89.152 23.4304C89.0327 23.4304 88.9295 23.4493 88.8424 23.4872C88.7553 23.5241 88.6875 23.5753 88.6393 23.6406C88.5919 23.705 88.5682 23.7784 88.5682 23.8608C88.5682 23.9299 88.5843 23.9896 88.6165 24.0398C88.6497 24.09 88.6928 24.1321 88.7458 24.1662C88.7998 24.1993 88.8575 24.2273 88.9191 24.25C88.9806 24.2718 89.0398 24.2898 89.0966 24.304L89.3807 24.3778C89.4735 24.4006 89.5687 24.4313 89.6662 24.4702C89.7638 24.509 89.8542 24.5601 89.9375 24.6236C90.0209 24.687 90.0881 24.7656 90.1393 24.8594C90.1913 24.9531 90.2174 25.0653 90.2174 25.196C90.2174 25.3608 90.1748 25.5071 90.0895 25.6349C90.0053 25.7628 89.8826 25.8636 89.7216 25.9375C89.5616 26.0114 89.3679 26.0483 89.1407 26.0483C88.9229 26.0483 88.7344 26.0137 88.5753 25.9446C88.4162 25.8755 88.2917 25.7775 88.2018 25.6506C88.1118 25.5227 88.0621 25.3712 88.0526 25.196H88.4929C88.5015 25.3011 88.5356 25.3887 88.5952 25.4588C88.6558 25.5279 88.733 25.5795 88.8268 25.6136C88.9215 25.6468 89.0251 25.6634 89.1378 25.6634C89.2619 25.6634 89.3722 25.6439 89.4688 25.6051C89.5663 25.5653 89.643 25.5104 89.6989 25.4403C89.7548 25.3693 89.7827 25.2865 89.7827 25.1918C89.7827 25.1056 89.7581 25.035 89.7089 24.9801C89.6606 24.9252 89.5947 24.8797 89.5114 24.8438C89.429 24.8078 89.3358 24.776 89.2316 24.7486L88.8878 24.6548C88.6549 24.5914 88.4702 24.4981 88.3339 24.375C88.1984 24.2519 88.1307 24.089 88.1307 23.8864C88.1307 23.7187 88.1762 23.5724 88.2671 23.4474C88.358 23.3224 88.4811 23.2254 88.6364 23.1562C88.7917 23.0862 88.9669 23.0511 89.162 23.0511C89.359 23.0511 89.5327 23.0857 89.6833 23.1548C89.8348 23.224 89.9541 23.3191 90.0412 23.4403C90.1284 23.5606 90.1738 23.6989 90.1776 23.8551H89.7543ZM93.6328 23.0909V26H93.1939V23.0909H93.6328ZM99.251 24.5455C99.251 24.8561 99.1942 25.1231 99.0805 25.3466C98.9669 25.5691 98.8111 25.7405 98.6132 25.8608C98.4162 25.9801 98.1923 26.0398 97.9413 26.0398C97.6894 26.0398 97.4645 25.9801 97.2666 25.8608C97.0696 25.7405 96.9143 25.5687 96.8007 25.3452C96.6871 25.1217 96.6303 24.8551 96.6303 24.5455C96.6303 24.2348 96.6871 23.9683 96.8007 23.7457C96.9143 23.5223 97.0696 23.3509 97.2666 23.2315C97.4645 23.1113 97.6894 23.0511 97.9413 23.0511C98.1923 23.0511 98.4162 23.1113 98.6132 23.2315C98.8111 23.3509 98.9669 23.5223 99.0805 23.7457C99.1942 23.9683 99.251 24.2348 99.251 24.5455ZM98.8163 24.5455C98.8163 24.3087 98.778 24.1094 98.7013 23.9474C98.6255 23.7846 98.5214 23.6615 98.3888 23.5781C98.2571 23.4938 98.108 23.4517 97.9413 23.4517C97.7737 23.4517 97.6241 23.4938 97.4925 23.5781C97.3608 23.6615 97.2567 23.7846 97.18 23.9474C97.1042 24.1094 97.0663 24.3087 97.0663 24.5455C97.0663 24.7822 97.1042 24.982 97.18 25.1449C97.2567 25.3068 97.3608 25.4299 97.4925 25.5142C97.6241 25.5975 97.7737 25.6392 97.9413 25.6392C98.108 25.6392 98.2571 25.5975 98.3888 25.5142C98.5214 25.4299 98.6255 25.3068 98.7013 25.1449C98.778 24.982 98.8163 24.7822 98.8163 24.5455ZM104.598 23.0909V26H104.195L102.716 23.8665H102.689V26H102.25V23.0909H102.656L104.137 25.2273H104.164V23.0909H104.598Z" fill="url(#paint4_radial_3497_901)"/>
<defs>
<radialGradient id="paint0_radial_3497_901" cx="0" cy="0" r="1" gradientUnits="userSpaceOnUse" gradientTransform="translate(62.5504 9.5) scale(6.55044)">
<stop stop-color="#F1E7A3"/>
<stop offset="1" stop-color="#8A6233"/>
</radialGradient>
<radialGradient id="paint1_radial_3497_901" cx="0" cy="0" r="1" gradientUnits="userSpaceOnUse" gradientTransform="translate(65 9.5) scale(65 9.5)">
<stop stop-color="#D0BD7F"/>
<stop offset="1" stop-color="#6A6041"/>
</radialGradient>
<radialGradient id="paint2_radial_3497_901" cx="0" cy="0" r="1" gradientUnits="userSpaceOnUse" gradientTransform="translate(65 9.5) scale(65 9.5)">
<stop stop-color="#D0BD7F"/>
<stop offset="1" stop-color="#6A6041"/>
</radialGradient>
<radialGradient id="paint3_radial_3497_901" cx="0" cy="0" r="1" gradientUnits="userSpaceOnUse" gradientTransform="translate(58.5 24.5) scale(47.5 2.5)">
<stop stop-color="#D0BD7F"/>
<stop offset="1" stop-color="#6A6041"/>
</radialGradient>
<radialGradient id="paint4_radial_3497_901" cx="0" cy="0" r="1" gradientUnits="userSpaceOnUse" gradientTransform="translate(58.5 24.5) scale(47.5 2.5)">
<stop stop-color="#D0BD7F"/>
<stop offset="1" stop-color="#6A6041"/>
</radialGradient>
</defs>
</svg>
